<svg width="100" height="100" viewBox="0 0 100 100" fill="none" xmlns="http://www.w3.org/2000/svg">
<path d="M20.6439 38.734C22.6967 38.734 24.4258 37.3406 24.9465 35.4511H28.6979V47.5148C28.6979 48.1685 29.2285 48.6988 29.8822 48.6988H31.8986C32.4865 50.6324 33.5955 52.3756 35.1 53.6963C34.6141 57.7642 37.1248 61.6808 41.0678 62.8144C41.7998 63.0252 42.5551 63.1322 43.3115 63.1318C43.6498 63.1318 43.984 63.1103 44.3137 63.0693V69.0078V69.015V72.6845H42.8596C42.3396 70.7953 40.61 69.4017 38.5578 69.4017C36.0951 69.4017 34.0912 71.4058 34.0912 73.8687C34.0912 76.3316 36.0951 78.3351 38.5578 78.3351C40.6102 78.3351 42.3396 76.9416 42.8596 75.0527H45.4982C46.1525 75.0527 46.682 74.5224 46.682 73.8685V70.416C47.7502 70.5646 48.859 70.6447 50 70.6447C51.1299 70.6447 52.2389 70.5642 53.3172 70.4138V73.8685C53.3172 74.5224 53.8467 75.0527 54.5014 75.0527H57.1164C57.6363 76.9416 59.3656 78.3351 61.4182 78.3351C63.8809 78.3351 65.8848 76.3316 65.8848 73.8687C65.8848 71.4058 63.8809 69.4017 61.4182 69.4017C59.3654 69.4017 57.6363 70.7953 57.1164 72.6845H55.6855V69.0173C55.6855 69.0158 55.6855 69.0142 55.6855 69.0127V63.0713C56.009 63.1105 56.3355 63.132 56.6662 63.132C57.4215 63.132 58.1758 63.0254 58.907 62.8152C62.8408 61.6912 65.3615 57.7748 64.8965 53.6994C66.401 52.3789 67.5111 50.6361 68.1 48.699H70.1164C70.7711 48.699 71.3012 48.1687 71.3012 47.515V35.4513H75.0285C75.5496 37.3408 77.2785 38.7342 79.3307 38.7342C81.7934 38.7342 83.7977 36.7301 83.7977 34.2674C83.7977 31.8047 81.7934 29.8011 79.3307 29.8011C77.2783 29.8011 75.5496 31.1941 75.0285 33.0834H70.1164C69.4629 33.0834 68.933 33.6134 68.933 34.2676V46.331H68.5309C68.7033 43.7551 67.9881 41.1924 66.5113 39.1508C67.3441 36.3138 66.9924 33.2607 65.5152 30.675C65.2818 30.2683 65.0154 29.8892 64.7359 29.523V21.8998H66.166C66.6867 23.7892 68.4156 25.1828 70.4682 25.1828C72.9436 25.1828 74.9584 23.1785 74.9584 20.7158C74.9584 18.2529 72.9436 16.2494 70.4682 16.2494C68.4154 16.2494 66.6867 17.6426 66.166 19.5318H63.5518C62.8975 19.5318 62.368 20.0621 62.368 20.716V27.2592C61.2861 26.5107 60.0734 25.9629 58.7715 25.6734C57.9707 24.0097 56.473 22.814 54.6402 22.4154C53.4668 22.1812 52.258 22.3318 51.1834 22.8013V13.9508C53.0728 13.4299 54.4664 11.701 54.4664 9.64822C54.4664 7.18591 52.4621 5.18201 49.9998 5.18201C47.5367 5.18201 45.5328 7.18591 45.5328 9.64822C45.5328 11.7011 46.926 13.4299 48.8154 13.9508V22.7974C47.7484 22.3275 46.5473 22.1736 45.3434 22.4179C43.502 22.8129 42.0035 24.009 41.2193 25.6748C39.9246 25.964 38.7154 26.5107 37.6324 27.2584V20.7152C37.6324 20.0613 37.1025 19.531 36.448 19.531H33.8098C33.2891 17.6418 31.5605 16.2486 29.5076 16.2486C27.0449 16.2486 25.041 18.2521 25.041 20.715C25.041 23.1777 27.0449 25.182 29.5076 25.182C31.5607 25.182 33.2891 23.7885 33.8098 21.899H35.2639V29.5054C34.9754 29.8779 34.7008 30.264 34.4574 30.6787C32.9781 33.2695 32.6348 36.3228 33.4844 39.1539C31.9928 41.2135 31.2783 43.7734 31.466 46.3304H31.067V34.267C31.067 33.6129 30.5367 33.0828 29.8826 33.0828H24.9469C24.4262 31.1935 22.6969 29.8006 20.6443 29.8006C18.1816 29.8006 16.1785 31.8041 16.1785 34.2668C16.1785 36.7295 18.1812 38.734 20.6439 38.734ZM38.5578 75.9666C37.4 75.9666 36.459 75.0259 36.459 73.8687C36.459 72.7115 37.4 71.7701 38.5578 71.7701C39.7156 71.7701 40.6566 72.7115 40.6566 73.8687C40.6566 75.0259 39.7156 75.9666 38.5578 75.9666ZM61.4182 71.7701C62.5949 71.7701 63.5166 72.6918 63.5166 73.8687C63.5166 75.0259 62.576 75.9666 61.4182 75.9666C60.2603 75.9666 59.3197 75.0259 59.3197 73.8687C59.3197 72.7115 60.2603 71.7701 61.4182 71.7701ZM79.3309 32.1689C80.4883 32.1689 81.4297 33.1099 81.4297 34.2672C81.4297 35.4244 80.4883 36.3656 79.3309 36.3656C78.1742 36.3656 77.2332 35.4244 77.2332 34.2672C77.2332 33.1099 78.1742 32.1689 79.3309 32.1689ZM70.4686 18.617C71.6389 18.617 72.5902 19.5578 72.5902 20.715C72.5902 21.872 71.6389 22.8135 70.4686 22.8135C69.3119 22.8135 68.3701 21.872 68.3701 20.715C68.3701 19.558 69.3119 18.617 70.4686 18.617ZM29.5074 22.8136C28.35 22.8136 27.409 21.8722 27.409 20.7152C27.409 19.558 28.35 18.6172 29.5074 18.6172C30.6645 18.6172 31.6059 19.558 31.6059 20.7152C31.6059 21.872 30.6645 22.8136 29.5074 22.8136ZM53.3172 68.0228C51.1496 68.3574 48.7998 68.3543 46.6818 68.0256V62.3828C47.9937 61.784 49.1457 60.8558 49.999 59.6631C50.8523 60.8584 52.0055 61.7881 53.317 62.3871V68.0228H53.3172ZM53.5037 24.6699C53.7275 24.6699 53.9535 24.6924 54.1561 24.733C55.3916 25.0013 56.3826 25.8888 56.8068 27.1066C56.9502 27.5205 57.3111 27.8211 57.7441 27.8879C60.1363 28.256 62.2207 29.7025 63.4619 31.8531C64.7018 34.0246 64.9268 36.6211 64.0787 38.9779C63.9363 39.3711 64.0135 39.8103 64.2801 40.1324C65.716 41.8728 66.398 44.2015 66.1504 46.5095C65.8822 48.8043 64.6988 50.9037 62.9049 52.2705C62.5439 52.5449 62.3719 53.0015 62.4613 53.4459C63.0904 56.5693 61.2426 59.6849 58.2537 60.5384C57.7346 60.6877 57.2 60.7634 56.666 60.7634C54.2338 60.7634 52.057 59.2015 51.1836 56.8681V33.5172V25.6058C51.8246 25.017 52.6424 24.6699 53.5037 24.6699ZM47.9008 9.64802C47.9008 8.49119 48.8418 7.55017 50 7.55017C51.157 7.55017 52.0984 8.49119 52.0984 9.64802C52.0984 10.8056 51.157 11.747 50 11.747C48.8418 11.7472 47.9008 10.8056 47.9008 9.64802ZM35.7193 40.1324C35.9875 39.8076 36.0639 39.3646 35.9174 38.9695C35.0537 36.6236 35.2715 34.0299 36.5072 31.8656C37.7752 29.7049 39.8695 28.2549 42.2553 27.8881C42.6939 27.8205 43.0582 27.5135 43.1986 27.0926C43.6016 25.8838 44.5887 25.0021 45.8281 24.7365C46.8848 24.5211 48.0066 24.8521 48.8158 25.5849V33.5176V56.8685C47.9434 59.2019 45.7561 60.7638 43.3119 60.7638C42.7768 60.7638 42.2416 60.6879 41.7223 60.5388C38.7293 59.6783 36.8906 56.566 37.5367 53.4535C37.6299 53.0068 37.4574 52.5467 37.0949 52.2705C35.3008 50.9049 34.118 48.8052 33.8486 46.5113C33.5826 44.2195 34.2648 41.8949 35.7193 40.1324ZM20.6439 32.1689C21.8018 32.1689 22.7428 33.1099 22.7428 34.2672C22.7428 35.4244 21.8018 36.3656 20.6439 36.3656C19.4873 36.3656 18.5463 35.4244 18.5463 34.2672C18.5463 33.1099 19.4873 32.1689 20.6439 32.1689ZM98.8273 45.9904V53.3527C98.8273 54.0068 98.2971 54.5371 97.6426 54.5371H88.9477C87.9338 59.1759 86.1369 63.5209 83.5953 67.4777L89.7352 73.6173C90.1967 74.0798 90.1967 74.8295 89.7352 75.2918L79.302 85.7257C78.858 86.1697 78.0709 86.1697 77.627 85.7257L71.4854 79.5842C67.5031 82.1318 63.1582 83.9293 58.5455 84.939V93.6343C58.5455 94.2882 58.016 94.8183 57.3617 94.8183H42.6145C41.9602 94.8183 41.4303 94.2882 41.4303 93.6343V84.939C36.818 83.9293 32.473 82.1318 28.4904 79.5842L22.3492 85.7257C22.1271 85.9478 21.8258 86.0724 21.5119 86.0724H21.5107C21.1969 86.0722 20.8955 85.947 20.6734 85.725L10.2635 75.2912C9.80273 74.8283 9.80352 74.0795 10.2646 73.6173L16.4045 67.4781C13.8438 63.4963 12.0393 59.1511 11.0289 54.5371H2.35703C1.70312 54.5371 1.17285 54.0066 1.17285 53.3527V45.9904C1.17285 45.3367 1.70312 44.8064 2.35703 44.8064H26.5293C27.1836 44.8064 27.7137 45.3367 27.7137 45.9904C27.7137 55.3187 33.5914 63.7283 42.3396 66.9177C42.9545 67.1416 43.2705 67.8215 43.0465 68.4355C42.8219 69.0504 42.1428 69.366 41.5287 69.1425C32.2213 65.7494 25.8496 57.0156 25.3746 47.1746H3.54082V52.1685H11.993C12.5602 52.1685 13.0477 52.5711 13.1553 53.1277C14.1189 58.1043 16.0537 62.7607 18.9045 66.9674C19.2238 67.4373 19.1639 68.0675 18.7619 68.4689L12.776 74.455L21.5127 83.2129L27.4973 77.2277C27.8994 76.8261 28.5271 76.7666 28.9969 77.0832C33.2057 79.9205 37.8633 81.8472 42.84 82.8115C43.3963 82.9191 43.799 83.4066 43.799 83.9736V92.4496H56.1773V83.9736C56.1773 83.4066 56.5803 82.9191 57.1363 82.8115C62.1129 81.847 66.7707 79.9205 70.9795 77.0832C71.4486 76.767 72.0773 76.8269 72.4791 77.2277L78.4645 83.2136L87.223 74.4541L81.2377 68.4685C80.8359 68.067 80.7762 67.4369 81.0953 66.967C83.9242 62.7925 85.8504 58.1357 86.8211 53.1273C86.9279 52.5705 87.4158 52.1681 87.9826 52.1681H96.4584V47.1742H74.625C74.1488 57.0062 67.7783 65.7398 58.4713 69.1422C57.8574 69.3656 57.1766 69.05 56.9531 68.4361C56.7285 67.8222 57.0443 67.1422 57.6592 66.9175C66.4078 63.7197 72.2855 55.3097 72.2855 45.9902C72.2855 45.3365 72.8154 44.8062 73.4699 44.8062H97.6426C98.2971 44.8064 98.8273 45.3367 98.8273 45.9904ZM37.7277 35.249C37.6893 34.5963 38.1885 34.0367 38.8412 33.9996C39.5127 33.9689 40.0547 34.4617 40.0908 35.1142C40.1557 36.2381 40.935 37.1904 42.0299 37.4849C43.1258 37.7742 44.2812 37.3365 44.9143 36.397C45.2801 35.8531 46.016 35.7117 46.5568 36.0756C47.0996 36.4404 47.2432 37.1759 46.8783 37.7187C45.9303 39.1297 44.3514 39.9408 42.7055 39.9408C42.2781 39.9408 41.8471 39.8865 41.4207 39.7732C39.3322 39.2121 37.8494 37.3943 37.7277 35.249ZM47.2297 52.6215C47.4387 53.2412 47.1072 53.9131 46.4873 54.1228C45.9666 54.2992 45.4275 54.3842 44.8936 54.3842C43.4164 54.3847 41.9691 53.7338 40.998 52.5597C39.6693 50.99 39.4467 48.7008 40.451 46.8736C40.7645 46.3008 41.4852 46.0926 42.0584 46.4066C42.6318 46.7215 42.8408 47.442 42.5254 48.015C41.991 48.9879 42.1068 50.2039 42.8145 51.0402C43.5232 51.8968 44.6887 52.2304 45.7277 51.8795C46.3479 51.6711 47.0199 52.0015 47.2297 52.6215ZM53.1129 37.7066C52.7543 37.1593 52.9064 36.4254 53.4543 36.0674C53.9982 35.7093 54.735 35.8603 55.0936 36.4084C55.699 37.3322 56.8709 37.7726 57.9459 37.4847C59.043 37.1945 59.8205 36.2424 59.885 35.114C59.9223 34.4615 60.4678 33.9687 61.135 33.9994C61.7877 34.0365 62.2865 34.5963 62.2484 35.2488C62.126 37.4027 60.642 39.2207 58.5555 39.7726C58.124 39.8888 57.6881 39.9447 57.257 39.9447C55.6117 39.9449 54.0443 39.1287 53.1129 37.7066ZM52.7463 52.6215C52.9564 52.0015 53.6275 51.6711 54.2478 51.8795C55.2988 52.2369 56.4527 51.9068 57.1848 51.0408C57.8744 50.2062 57.9844 48.9861 57.4506 48.015C57.1352 47.4418 57.3438 46.7215 57.9172 46.4066C58.4902 46.0929 59.2111 46.3008 59.525 46.8736C60.5232 48.6886 60.3123 50.9738 59.0012 52.5597C57.9978 53.7459 56.5742 54.3906 55.1078 54.3906C54.5676 54.3906 54.0213 54.3033 53.4885 54.1228C52.8687 53.9131 52.5367 53.2412 52.7463 52.6215Z" fill="white"/>
</svg>
