<svg width="100" height="100" viewBox="0 0 100 100" fill="none" xmlns="http://www.w3.org/2000/svg">
<path d="M70.2894 63.2341C70.5645 63.2353 65.2056 63.2358 70.2894 63.2341Z" fill="white"/>
<path d="M88.0465 34.0025C90.6747 16.6968 70.7102 4.95222 56.8423 15.0121C52.0882 7.84388 43.9902 3.45752 35.3053 3.45752C18.5474 3.45752 6.52684 19.0969 10.0368 34.7549C4.8885 37.174 1.51562 42.438 1.51562 48.261C1.51562 56.5153 8.22138 63.2306 16.4644 63.2306H48.9285V68.7172C47.2765 69.2469 46.0008 70.5518 45.4994 72.2283H31.4677C30.7687 70.1092 28.7934 68.5625 26.4535 68.5625C26.4394 68.5625 26.3085 68.5625 26.2944 68.5633C23.4306 68.6439 21.1712 70.9618 21.1505 73.8656C21.1505 76.2737 22.7281 78.2715 24.9435 78.9265V89.3366H21.1571V86.6756C21.1571 85.8389 20.4787 85.1604 19.642 85.1604H11.2894C10.4527 85.1604 9.77426 85.8389 9.77426 86.6756V95.0274C9.77426 95.864 10.4527 96.5425 11.2894 96.5425H19.642C20.4787 96.5425 21.1571 95.864 21.1571 95.0274V92.3669H33.0905V95.0274C33.0905 95.864 33.769 96.5425 34.6056 96.5425H42.9574C43.7941 96.5425 44.4726 95.864 44.4726 95.0274V92.3669H56.4067V95.0274C56.4067 95.864 57.0852 96.5425 57.9218 96.5425H66.2737C67.1103 96.5425 67.7888 95.864 67.7888 95.0274V92.3669H79.7229V95.0274C79.7229 95.864 80.4014 96.5425 81.2381 96.5425H89.5899C90.4265 96.5425 91.105 95.864 91.105 95.0274V86.6756C91.105 85.8389 90.4265 85.1604 89.5899 85.1604H81.2381C80.4014 85.1604 79.7229 85.8389 79.7229 86.6756V89.3366H75.065V78.9042C77.1818 78.2069 78.7249 76.2301 78.7249 73.8625C78.7041 70.9528 76.3256 68.5854 73.4218 68.5854C73.4078 68.5854 73.2768 68.5854 73.2628 68.5862C70.9753 68.6506 69.0952 70.1515 68.4117 72.2283H55.6043C55.0779 70.496 53.7029 69.1451 51.959 68.6583V63.2306C66.4714 63.2316 70.0755 63.233 70.289 63.234C72.4346 63.2333 76.4349 63.2322 83.5161 63.2306C91.7703 63.2306 98.4856 56.5153 98.4856 48.261C98.4853 41.7166 94.1752 35.9409 88.0465 34.0025ZM18.1268 93.5121H12.8046V88.1906H18.1268V93.5121ZM82.7531 88.1906H88.0746V93.5121H82.7531V88.1906ZM30.0815 60.1966C28.8371 60.1966 27.8244 59.1837 27.8244 57.9387V34.6662C27.8244 33.421 28.8373 32.4083 30.0815 32.4083H38.1374V57.9439C38.1374 58.754 38.3355 59.5134 38.6626 60.2004C35.9118 60.194 34.6232 60.1268 30.0815 60.1966ZM26.4587 76.1375C26.4579 76.1375 26.4573 76.138 26.4565 76.138C26.4565 76.138 26.4546 76.1383 26.4535 76.1383C26.4277 76.1384 26.4062 76.1519 26.3809 76.1533L26.3803 76.139C25.147 76.1036 24.1808 75.1048 24.1808 73.8619C24.1897 72.6234 25.1559 71.6269 26.4535 71.5928C27.6987 71.5928 28.7181 72.6101 28.7262 73.8656C28.7262 75.1168 27.7091 76.1342 26.4587 76.1375ZM41.4423 93.5121H36.1208V88.1906H41.4423V93.5121ZM48.9285 89.3366H44.4726V86.6756C44.4726 85.8389 43.7941 85.1604 42.9574 85.1604H34.6056C33.769 85.1604 33.0905 85.8389 33.0905 86.6756V89.3366H27.9738V78.9193C29.7067 78.3954 31.057 77.0187 31.5426 75.2586H45.49C45.982 76.9286 47.2562 78.2349 48.9285 78.7701V89.3366ZM64.7584 93.5121H59.4368V90.881C59.437 90.8707 59.4427 90.8621 59.4427 90.8518C59.4427 90.8415 59.437 90.8328 59.4368 90.8225V88.1907H64.7584V93.5121ZM73.4217 71.6157C74.6661 71.6157 75.6855 72.6337 75.6944 73.8884C75.6944 75.1416 74.6749 76.1612 73.4217 76.1612V76.1937C73.3971 76.196 73.375 76.2048 73.3506 76.2081L73.3484 76.1619C72.115 76.1265 71.1488 75.1277 71.1488 73.884C71.1571 72.6463 72.1234 71.6496 73.4217 71.6157ZM55.6049 75.2586H68.3167C68.7971 77.0762 70.1971 78.4948 72.0347 78.9898V89.3366H67.789V86.6756C67.789 85.8389 67.1105 85.1604 66.2738 85.1604H57.9217C57.085 85.1604 56.4065 85.8389 56.4065 86.6756V89.3366H51.9588V78.8359C53.7065 78.3506 55.08 76.9999 55.6049 75.2586ZM52.824 73.7348C52.824 73.7378 52.8221 73.7404 52.8221 73.7434C52.8221 73.7472 52.8243 73.7504 52.8243 73.7542C52.82 75.0036 51.8029 76.0192 50.5523 76.0192V76.0383C50.5268 76.0363 50.505 76.0242 50.4793 76.0234L50.4791 76.0199C49.2458 75.9852 48.2796 74.9865 48.2796 73.7436C48.2885 72.5051 49.2547 71.5078 50.5523 71.4739C51.7937 71.4736 52.8093 72.4856 52.824 73.7348ZM55.4906 57.9437C55.4906 58.8799 54.9176 59.6837 54.1043 60.0251C54.0865 60.0316 54.0685 60.0345 54.0509 60.0418C53.5085 60.2536 45.5382 60.2237 43.4241 60.2002C42.1797 60.2002 41.1676 59.1881 41.1676 57.9437V30.9151C41.1677 30.9074 41.172 30.9009 41.172 30.8931C41.172 30.8854 41.1676 30.8789 41.1676 30.8712V27.8503C41.1676 26.6059 42.1797 25.5937 43.4241 25.5937H53.2349C54.4785 25.5937 55.4906 26.6059 55.4906 27.8503V57.9437ZM68.0817 57.9386C68.0817 59.1837 67.0688 60.1965 65.8364 60.1965C62.1765 60.1669 59.8402 60.1854 58.2902 60.198C58.1794 60.1989 58.0978 60.1993 57.9959 60.1999C58.3231 59.513 58.5209 58.7537 58.5209 57.9437V32.4081H65.8237C67.0688 32.4081 68.0815 33.421 68.0815 34.666L68.0817 57.9386ZM83.5158 60.2002H70.5841C70.9128 59.5119 71.112 58.7509 71.112 57.9386V34.6662C71.112 31.7506 68.7394 29.378 65.8238 29.378H58.5211V27.8503C58.5211 24.9354 56.15 22.5634 53.235 22.5634H43.4243C40.5094 22.5634 38.1374 24.9353 38.1374 27.8503V29.378H30.0815C27.1659 29.378 24.7941 31.7506 24.7941 34.6662V57.9387C24.7941 58.751 24.9934 59.5119 25.3224 60.2004H16.4644C9.8926 60.2002 4.54593 54.8446 4.54593 48.261C4.54593 43.2451 7.67684 38.7521 12.337 37.0801C13.085 36.8116 13.4985 36.0102 13.284 35.2454C9.34684 21.1824 20.0047 6.48782 35.3055 6.48782C43.4923 6.48782 51.0881 10.9016 55.1282 18.0062C55.3517 18.4006 55.7408 18.6734 56.1868 18.7504C56.6321 18.8274 57.0902 18.7009 57.4341 18.4049C69.5411 7.97206 88.3128 19.0504 84.82 34.7809C84.732 35.1766 84.8059 35.591 85.0256 35.9313C85.2461 36.2716 85.5931 36.5098 85.9896 36.5927C91.4741 37.7363 95.455 42.6436 95.455 48.261C95.455 54.8446 90.0994 60.2002 83.5158 60.2002Z" fill="white"/>
<path d="M35.2777 35.3127H31.6245C30.7879 35.3127 30.1094 35.9912 30.1094 36.8279C30.1094 37.6646 30.7879 38.343 31.6245 38.343H35.2777C36.1144 38.343 36.7929 37.6646 36.7929 36.8279C36.7929 35.9912 36.1144 35.3127 35.2777 35.3127Z" fill="white"/>
<path d="M35.2777 40.8938H31.6245C30.7879 40.8938 30.1094 41.5723 30.1094 42.409C30.1094 43.2456 30.7879 43.9241 31.6245 43.9241H35.2777C36.1144 43.9241 36.7929 43.2456 36.7929 42.409C36.7929 41.5723 36.1144 40.8938 35.2777 40.8938Z" fill="white"/>
<path d="M35.2777 46.4751H31.6245C30.7879 46.4751 30.1094 47.1536 30.1094 47.9902C30.1094 48.8269 30.7879 49.5054 31.6245 49.5054H35.2777C36.1144 49.5054 36.7929 48.8269 36.7929 47.9902C36.7929 47.1536 36.1144 46.4751 35.2777 46.4751Z" fill="white"/>
<path d="M65.1136 35.3127H61.4605C60.6238 35.3127 59.9453 35.9912 59.9453 36.8279C59.9453 37.6646 60.6238 38.343 61.4605 38.343H65.1136C65.9503 38.343 66.6288 37.6646 66.6288 36.8279C66.6288 35.9912 65.9503 35.3127 65.1136 35.3127Z" fill="white"/>
<path d="M65.1136 40.8938H61.4605C60.6238 40.8938 59.9453 41.5723 59.9453 42.409C59.9453 43.2456 60.6238 43.9241 61.4605 43.9241H65.1136C65.9503 43.9241 66.6288 43.2456 66.6288 42.409C66.6288 41.5723 65.9503 40.8938 65.1136 40.8938Z" fill="white"/>
<path d="M65.1136 46.4751H61.4605C60.6238 46.4751 59.9453 47.1536 59.9453 47.9902C59.9453 48.8269 60.6238 49.5054 61.4605 49.5054H65.1136C65.9503 49.5054 66.6288 48.8269 66.6288 47.9902C66.6288 47.1536 65.9503 46.4751 65.1136 46.4751Z" fill="white"/>
<path d="M48.3287 56.1954C49.824 56.1954 51.0362 54.9832 51.0362 53.4878C51.0362 51.9925 49.824 50.7803 48.3287 50.7803C46.8333 50.7803 45.6211 51.9925 45.6211 53.4878C45.6211 54.9832 46.8333 56.1954 48.3287 56.1954Z" fill="white"/>
<path d="M51.5886 29.3779H45.0715C43.0632 29.3779 43.0247 32.736 45.0715 32.736H51.5886C53.597 32.736 53.6353 29.3779 51.5886 29.3779Z" fill="white"/>
<path d="M51.5884 36.6519H45.0712C43.0196 36.6519 43.0685 40.0099 45.0712 40.0099H51.5884C53.5967 40.0099 53.635 36.6519 51.5884 36.6519Z" fill="white"/>
<path d="M51.5884 43.9258H45.0713C43.0675 43.9258 43.0205 47.2838 45.0713 47.2838H51.5884C53.5967 47.2838 53.6351 43.9258 51.5884 43.9258Z" fill="white"/>
</svg>
