<svg width="73" height="73" viewBox="0 0 73 73" fill="none" xmlns="http://www.w3.org/2000/svg">
<g filter="url(#filter0_d_287_1771)">
<path d="M4 33.0709C4 15.1607 18.5198 0.641602 36.43 0.641602C54.3402 0.641602 68.86 15.1607 68.86 33.0709C68.86 50.9812 54.3402 65.5003 36.43 65.5003C18.5198 65.5003 4 50.9812 4 33.0709Z" fill="black"/>
</g>
<path d="M37.8933 34.9217L39.76 31.695C39.88 31.495 39.8266 31.2417 39.6533 31.095L37.68 29.5484C37.72 29.255 37.7466 28.9483 37.7466 28.6417C37.7466 28.335 37.72 28.0284 37.68 27.7217L39.6533 26.175C39.8266 26.0283 39.88 25.775 39.76 25.575L37.8933 22.3484C37.7733 22.1484 37.5333 22.0683 37.32 22.1483L35 23.0817C34.52 22.7083 34 22.4017 33.4266 22.1617L33.08 19.695C33.0576 19.5872 32.9992 19.4902 32.9144 19.4199C32.8296 19.3496 32.7234 19.3103 32.6133 19.3083H28.88C28.6533 19.3083 28.4533 19.4817 28.4133 19.7083L28.0666 22.175C27.5066 22.415 26.9733 22.7217 26.4933 23.095L24.1733 22.1617C23.96 22.0817 23.72 22.1617 23.6 22.3617L21.7333 25.5883C21.6133 25.7883 21.6666 26.0417 21.84 26.1883L23.8133 27.735C23.7733 28.0283 23.7466 28.335 23.7466 28.6417C23.7466 28.9483 23.7733 29.255 23.8133 29.5617L21.84 31.1084C21.6666 31.255 21.6133 31.5084 21.7333 31.7084L23.6 34.935C23.72 35.135 23.96 35.215 24.1733 35.135L26.4933 34.2017C26.9733 34.575 27.4933 34.8817 28.0666 35.1217L28.4133 37.5884C28.4533 37.8017 28.6533 37.975 28.88 37.975H32.6133C32.84 37.975 33.04 37.8017 33.08 37.575L33.4266 35.1084C33.9866 34.8684 34.52 34.5617 35 34.1883L37.32 35.1217C37.5333 35.2017 37.7733 35.1217 37.8933 34.9217ZM30.7466 31.3083C29.28 31.3083 28.08 30.1083 28.08 28.6417C28.08 27.175 29.28 25.975 30.7466 25.975C32.2133 25.975 33.4133 27.175 33.4133 28.6417C33.4133 30.1083 32.2133 31.3083 30.7466 31.3083ZM48.2266 41.535L46.9466 40.5484C46.9733 40.3617 47 40.1617 47 39.9617C47 39.7617 46.9866 39.5617 46.9466 39.375L48.2133 38.3883C48.32 38.295 48.36 38.135 48.28 38.0017L47.08 35.935C47.0133 35.8017 46.8533 35.7617 46.7066 35.8017L45.2266 36.4017C44.92 36.1617 44.5866 35.9617 44.2133 35.815L43.9866 34.2417C43.9814 34.1704 43.9498 34.1037 43.898 34.0544C43.8463 34.0051 43.7781 33.9768 43.7066 33.975H41.32C41.1733 33.975 41.04 34.0817 41.0266 34.2283L40.8 35.8017C40.44 35.9617 40.0933 36.1483 39.7866 36.3884L38.3066 35.7883C38.2387 35.7628 38.1639 35.7622 38.0955 35.7866C38.0272 35.811 37.9697 35.8589 37.9333 35.9217L36.7333 37.9883C36.6666 38.1217 36.68 38.2817 36.8 38.375L38.0666 39.3617C38.0126 39.7509 38.0126 40.1458 38.0666 40.535L36.8 41.5217C36.6933 41.615 36.6533 41.775 36.7333 41.9084L37.9333 43.975C38 44.1084 38.16 44.1484 38.3066 44.1084L39.7866 43.5084C40.0933 43.7484 40.4266 43.9484 40.8 44.095L41.0266 45.6684C41.0533 45.815 41.1733 45.9217 41.32 45.9217H43.7066C43.8533 45.9217 43.9866 45.815 44 45.6684L44.2266 44.095C44.5866 43.935 44.9333 43.7484 45.2266 43.5084L46.72 44.1084C46.8533 44.1617 47.0133 44.1084 47.0933 43.975L48.2933 41.9084C48.3733 41.7884 48.3333 41.6284 48.2266 41.535ZM42.5066 41.7484C42.2702 41.7483 42.036 41.7016 41.8176 41.611C41.5992 41.5205 41.4007 41.3877 41.2336 41.2205C41.0664 41.0532 40.9339 40.8547 40.8434 40.6362C40.753 40.4177 40.7065 40.1835 40.7066 39.947C40.7067 39.7106 40.7534 39.4764 40.844 39.258C40.9345 39.0396 41.0672 38.8411 41.2345 38.6739C41.4018 38.5068 41.6003 38.3742 41.8188 38.2838C42.0373 38.1934 42.2715 38.1469 42.508 38.147C42.9855 38.1472 43.4435 38.3371 43.781 38.6749C44.1186 39.0127 44.3081 39.4708 44.308 39.9483C44.3078 40.4259 44.1179 40.8839 43.7801 41.2214C43.4423 41.559 42.9842 41.7485 42.5066 41.7484Z" fill="#EB8145"/>
<defs>
<filter id="filter0_d_287_1771" x="0.616748" y="0.641602" width="71.6265" height="71.6251" filterUnits="userSpaceOnUse" color-interpolation-filters="sRGB">
<feFlood flood-opacity="0" result="BackgroundImageFix"/>
<feColorMatrix in="SourceAlpha" type="matrix" values="0 0 0 0 0 0 0 0 0 0 0 0 0 0 0 0 0 0 127 0" result="hardAlpha"/>
<feOffset dy="3.38325"/>
<feGaussianBlur stdDeviation="1.69163"/>
<feComposite in2="hardAlpha" operator="out"/>
<feColorMatrix type="matrix" values="0 0 0 0 0 0 0 0 0 0 0 0 0 0 0 0 0 0 0.25 0"/>
<feBlend mode="normal" in2="BackgroundImageFix" result="effect1_dropShadow_287_1771"/>
<feBlend mode="normal" in="SourceGraphic" in2="effect1_dropShadow_287_1771" result="shape"/>
</filter>
</defs>
</svg>
