<svg width="100" height="100" viewBox="0 0 100 100" fill="none" xmlns="http://www.w3.org/2000/svg">
<path fill-rule="evenodd" clip-rule="evenodd" d="M39.6628 25.1665C31.7005 22.32 18.6691 22.32 10.7068 25.1665C3.47593 27.7515 3.47593 31.1696 10.7068 33.7546C18.6693 36.6011 31.7003 36.6011 39.6628 33.7546C46.8939 31.1698 46.8939 27.7515 39.6628 25.1665ZM11.297 40.248C11.4338 40.2895 11.5609 40.358 11.6708 40.4494C11.7807 40.5408 11.8713 40.6532 11.9371 40.7801C12.003 40.9069 12.0428 41.0457 12.0543 41.1882C12.0657 41.3307 12.0486 41.474 12.0039 41.6098C11.9592 41.7456 11.8878 41.871 11.7939 41.9788C11.7 42.0866 11.5855 42.1745 11.4571 42.2374C11.3288 42.3003 11.1892 42.337 11.0464 42.3451C10.9037 42.3533 10.7608 42.3329 10.6261 42.2851L9.1355 41.7413C9.00323 41.6903 8.88242 41.6135 8.78008 41.5154C8.67773 41.4173 8.59589 41.2998 8.53929 41.1698C8.4827 41.0398 8.45249 40.8999 8.4504 40.7581C8.44832 40.6164 8.47441 40.4756 8.52716 40.344C8.57991 40.2124 8.65826 40.0926 8.75768 39.9916C8.8571 39.8905 8.9756 39.8102 9.10631 39.7553C9.23701 39.7004 9.37732 39.672 9.5191 39.6717C9.66087 39.6715 9.80128 39.6994 9.93218 39.7538L11.297 40.2472V40.248ZM11.297 52.8456C11.4338 52.8872 11.5609 52.9557 11.6708 53.0471C11.7807 53.1384 11.8713 53.2509 11.9371 53.3777C12.003 53.5046 12.0428 53.6434 12.0543 53.7858C12.0657 53.9283 12.0486 54.0717 12.0039 54.2074C11.9592 54.3432 11.8878 54.4687 11.7939 54.5765C11.7 54.6842 11.5855 54.7722 11.4571 54.8351C11.3288 54.898 11.1892 54.9346 11.0464 54.9428C10.9037 54.951 10.7608 54.9305 10.6261 54.8827L9.1355 54.3392C9.00498 54.2869 8.88605 54.2093 8.78549 54.1111C8.68493 54.0128 8.60471 53.8957 8.54941 53.7664C8.43773 53.5053 8.43434 53.2106 8.53999 52.947C8.64563 52.6834 8.85166 52.4726 9.11275 52.3609C9.24202 52.3056 9.38093 52.2763 9.52152 52.2747C9.66212 52.2731 9.80166 52.2992 9.93218 52.3515L11.297 52.8448V52.8456ZM11.297 65.4433C11.4338 65.4848 11.5609 65.5533 11.6708 65.6447C11.7807 65.7361 11.8713 65.8485 11.9371 65.9754C12.003 66.1023 12.0428 66.241 12.0543 66.3835C12.0657 66.526 12.0486 66.6693 12.0039 66.8051C11.9592 66.9409 11.8878 67.0663 11.7939 67.1741C11.7 67.2819 11.5855 67.3698 11.4571 67.4327C11.3288 67.4957 11.1892 67.5323 11.0464 67.5405C10.9037 67.5486 10.7608 67.5282 10.6261 67.4804L9.1355 66.9366C9.00323 66.8856 8.88242 66.8088 8.78008 66.7107C8.67773 66.6126 8.59589 66.4951 8.53929 66.3651C8.4827 66.2351 8.45249 66.0952 8.4504 65.9535C8.44832 65.8117 8.47441 65.6709 8.52716 65.5394C8.57991 65.4078 8.65826 65.288 8.75768 65.1869C8.8571 65.0858 8.9756 65.0055 9.10631 64.9506C9.23701 64.8957 9.37732 64.8673 9.5191 64.867C9.66087 64.8668 9.80128 64.8947 9.93218 64.9491L11.297 65.4425V65.4433ZM36.9626 47.1573C28.9744 49.1575 17.822 48.8876 10.7066 46.3442C7.34956 45.1439 5.27339 43.6177 5.27339 42.0507V33.279C12.9814 39.611 37.3988 39.6103 45.1007 33.2757V34.2095C44.9454 34.3026 44.8021 34.4145 44.6742 34.5427L40.2068 39.0101L40.2087 39.012C40.0031 39.2172 39.8399 39.461 39.7286 39.7293C39.6172 39.9976 39.5597 40.2853 39.5596 40.5758C39.5594 40.8663 39.6165 41.154 39.7275 41.4225C39.8386 41.6909 40.0014 41.9348 40.2068 42.1403L41.3281 43.2616L40.7617 44.6273H39.1759C38.8853 44.6272 38.5975 44.6845 38.329 44.7959C38.0606 44.9074 37.8168 45.0707 37.6117 45.2767C37.0365 45.8519 36.9623 46.4095 36.9623 47.1569L36.9626 47.1573ZM39.6078 58.963C39.6961 58.545 39.9042 58.1617 40.2066 57.8599L41.3281 56.7382L40.7617 55.3726H39.1759C38.5894 55.3706 38.0275 55.1367 37.6128 54.722C37.1981 54.3073 36.9643 53.7454 36.9623 53.1589V49.3605C28.6361 51.3265 17.371 51.0056 9.98511 48.3644C8.04214 47.6696 6.4394 46.8259 5.2728 45.8675V54.6483C5.2728 56.2161 7.34936 57.7425 10.7062 58.9425C18.3738 61.6835 31.3681 61.8854 39.6074 58.9638L39.6078 58.963ZM45.096 65.7882C44.9423 65.6956 44.8004 65.5845 44.6736 65.4575L40.2314 61.0155C31.5234 64.0687 18.1054 63.8649 9.9855 60.9626C8.04253 60.2681 6.4396 59.4241 5.27319 58.4659V67.2499C5.27749 68.8159 7.35307 70.3403 10.7066 71.5392C18.6691 74.3854 31.7005 74.3854 39.6628 71.5392C43.0201 70.339 45.0964 68.8128 45.0964 67.245V65.788L45.096 65.7882ZM59.8375 45.8272C59.0119 45.0017 57.9601 44.4395 56.8151 44.2117C55.67 43.9839 54.4831 44.1008 53.4045 44.5476C52.3258 44.9943 51.4039 45.7509 50.7553 46.7217C50.1066 47.6924 49.7604 48.8337 49.7604 50.0012C49.7604 51.1687 50.1066 52.31 50.7553 53.2807C51.4039 54.2514 52.3258 55.008 53.4045 55.4548C54.4831 55.9016 55.67 56.0184 56.8151 55.7907C57.9601 55.5629 59.0119 55.0007 59.8375 54.1751C60.9443 53.068 61.5661 51.5667 61.5661 50.0012C61.5661 48.4357 60.9443 46.9343 59.8375 45.8272ZM55.664 41.9503C57.2561 41.9503 58.8124 42.4225 60.1361 43.307C61.4598 44.1915 62.4915 45.4487 63.1007 46.9196C63.71 48.3905 63.8694 50.009 63.5587 51.5704C63.2481 53.1319 62.4814 54.5662 61.3557 55.6919C60.2299 56.8176 58.7956 57.5843 57.2341 57.8949C55.6727 58.2054 54.0542 58.046 52.5833 57.4368C51.1125 56.8275 49.8553 55.7958 48.9708 54.472C48.0863 53.1483 47.6142 51.592 47.6142 49.9999C47.6143 47.865 48.4625 45.8176 49.9721 44.308C51.4817 42.7984 53.5291 41.9503 55.664 41.9503ZM66.8882 37.8124L69.613 40.537C69.6187 40.5488 69.6215 40.5617 69.6212 40.5747L67.9359 42.2894C67.7622 42.4633 67.6534 42.6915 67.6276 42.936C67.6019 43.1805 67.6608 43.4264 67.7945 43.6327C68.1893 44.3952 68.5161 45.191 68.771 46.0108C68.8376 46.2303 68.973 46.4226 69.1572 46.5593C69.3414 46.696 69.5647 46.7698 69.7941 46.7698V46.7739L72.1994 46.7923L72.1974 46.7944C72.2098 46.8067 72.2168 46.8233 72.2169 46.8407V53.1585C72.2167 53.1759 72.2097 53.1925 72.1974 53.2048L69.7951 53.2243C69.5487 53.2244 69.3098 53.3092 69.1185 53.4645C68.9272 53.6198 68.795 53.8361 68.7443 54.0773C68.4837 54.8947 68.1516 55.6877 67.7519 56.447C67.644 56.6493 67.604 56.8809 67.6377 57.1077C67.6714 57.3344 67.7771 57.5444 67.9392 57.7065L67.9363 57.7091L69.6037 59.3763V59.4708L66.8828 62.1925L65.0886 63.9575L63.3742 62.2722C63.2002 62.0984 62.972 61.9896 62.7275 61.9639C62.483 61.9382 62.2371 61.9971 62.0308 62.1308C61.2683 62.5255 60.4724 62.8523 59.6525 63.1073C59.433 63.174 59.2407 63.3094 59.1041 63.4937C58.9674 63.6779 58.8936 63.9012 58.8935 64.1306H58.8894V66.4874L58.8228 66.554H55.664L52.4568 66.5358L52.4589 66.5337L52.4384 64.1314C52.4383 63.8849 52.3535 63.6461 52.1982 63.4547C52.043 63.2634 51.8266 63.1313 51.5855 63.0806C50.768 62.8199 49.9751 62.4878 49.2158 62.0882C49.0135 61.9803 48.7819 61.9403 48.5552 61.974C48.3284 62.0077 48.1185 62.1134 47.9564 62.2755L47.9537 62.2728L46.2865 63.9399H46.1914L42.0001 59.7487L41.7968 59.3056L43.3919 57.7103C43.5657 57.5363 43.6746 57.308 43.7003 57.0635C43.726 56.819 43.6671 56.573 43.5333 56.3667C43.1386 55.6043 42.8118 54.8086 42.5568 53.9888C42.4902 53.7693 42.3548 53.577 42.1706 53.4403C41.9864 53.3036 41.7631 53.2297 41.5337 53.2296V53.2255H39.1763L39.1167 53.1921L39.1095 46.8411C39.1097 46.8237 39.1167 46.8071 39.1291 46.7948L41.5314 46.7753C41.7778 46.7752 42.0166 46.6904 42.2079 46.5352C42.3993 46.3799 42.5314 46.1636 42.5822 45.9226C42.8428 45.1051 43.1749 44.3121 43.5746 43.5528C43.6824 43.3506 43.7225 43.119 43.6888 42.8923C43.6551 42.6655 43.5495 42.4556 43.3874 42.2935L43.39 42.2907L41.7228 40.6233L41.7208 40.5269L41.7228 40.5288L46.1914 36.0605C46.2041 36.0485 46.2211 36.042 46.2386 36.0425L47.9531 37.7276C48.127 37.9014 48.3553 38.0103 48.5998 38.036C48.8444 38.0617 49.0903 38.0028 49.2966 37.869C50.0591 37.4743 50.8549 37.1475 51.6748 36.8925C51.8943 36.8259 52.0865 36.6905 52.2232 36.5063C52.3599 36.3221 52.4337 36.0988 52.4337 35.8694H52.4378L52.4562 33.4642L55.664 33.4456L58.8712 33.464L58.8896 35.8692C58.8897 36.1156 58.9745 36.3545 59.1298 36.5458C59.2851 36.7372 59.5014 36.8693 59.7425 36.92C60.56 37.1806 61.353 37.5126 62.1123 37.9122C62.3145 38.0201 62.5461 38.0601 62.7728 38.0264C62.9995 37.9927 63.2095 37.8871 63.3716 37.7251L63.3744 37.7276L65.0888 36.0425C65.1609 36.0425 66.6994 37.6306 66.8884 37.8128L66.8882 37.8124ZM77.2582 21.6276C76.9669 21.3364 76.5959 21.1381 76.192 21.0578C75.7881 20.9774 75.3694 21.0187 74.989 21.1763C74.6085 21.3339 74.2833 21.6008 74.0545 21.9432C73.8257 22.2856 73.7036 22.6882 73.7036 23.1C73.7036 23.5118 73.8257 23.9144 74.0545 24.2568C74.2833 24.5992 74.6085 24.8661 74.989 25.0237C75.3694 25.1813 75.7881 25.2226 76.192 25.1422C76.5959 25.0619 76.9669 24.8636 77.2582 24.5724C77.6481 24.1816 77.8671 23.6521 77.8671 23.1C77.8671 22.5479 77.6481 22.0184 77.2582 21.6276ZM77.2582 75.4269C76.9669 75.1357 76.5959 74.9373 76.192 74.857C75.7881 74.7767 75.3694 74.8179 74.989 74.9755C74.6085 75.1331 74.2833 75.4 74.0545 75.7424C73.8257 76.0848 73.7036 76.4874 73.7036 76.8992C73.7036 77.311 73.8257 77.7136 74.0545 78.056C74.2833 78.3985 74.6085 78.6653 74.989 78.8229C75.3694 78.9805 75.7881 79.0218 76.192 78.9414C76.5959 78.8611 76.9669 78.6628 77.2582 78.3716C77.6481 77.9808 77.8671 77.4513 77.8671 76.8992C77.8671 76.3472 77.6481 75.8177 77.2582 75.4269ZM94.1179 61.4878C93.8267 61.1966 93.4557 60.9983 93.0518 60.9179C92.6479 60.8376 92.2292 60.8788 91.8487 61.0364C91.4683 61.194 91.1431 61.4609 90.9143 61.8033C90.6855 62.1458 90.5633 62.5483 90.5633 62.9602C90.5633 63.372 90.6855 63.7746 90.9143 64.117C91.1431 64.4594 91.4683 64.7263 91.8487 64.8839C92.2292 65.0415 92.6479 65.0827 93.0518 65.0024C93.4557 64.922 93.8267 64.7237 94.1179 64.4325C94.5079 64.0417 94.7269 63.5122 94.7269 62.9602C94.7269 62.4081 94.5079 61.8786 94.1179 61.4878ZM85.688 48.5271C85.3968 48.2359 85.0258 48.0376 84.6219 47.9573C84.218 47.877 83.7993 47.9182 83.4189 48.0758C83.0384 48.2334 82.7132 48.5003 82.4845 48.8427C82.2557 49.1851 82.1336 49.5877 82.1336 49.9995C82.1336 50.4113 82.2557 50.8139 82.4845 51.1563C82.7132 51.4987 83.0384 51.7656 83.4189 51.9232C83.7993 52.0808 84.218 52.1221 84.6219 52.0418C85.0258 51.9614 85.3968 51.7631 85.688 51.472C86.078 51.0812 86.297 50.5516 86.297 49.9995C86.297 49.4474 86.078 48.9179 85.688 48.5271ZM94.1181 35.5663C93.8269 35.2751 93.4559 35.0769 93.052 34.9965C92.6481 34.9162 92.2294 34.9575 91.849 35.1151C91.4685 35.2727 91.1433 35.5396 90.9145 35.882C90.6857 36.2244 90.5636 36.627 90.5636 37.0388C90.5636 37.4506 90.6857 37.8532 90.9145 38.1956C91.1433 38.538 91.4685 38.8049 91.849 38.9625C92.2294 39.1201 92.6481 39.1613 93.052 39.081C93.4559 39.0007 93.8269 38.8024 94.1181 38.5112C94.5081 38.1205 94.7272 37.5909 94.7272 37.0388C94.7272 36.4867 94.5081 35.9571 94.1181 35.5663ZM92.6457 32.8097C96.3999 32.8097 98.2943 37.3706 95.6361 40.029C95.1093 40.554 94.4534 40.931 93.7346 41.122C93.0157 41.313 92.2592 41.3112 91.5413 41.1169C90.8233 40.9226 90.1693 40.5426 89.6449 40.0151C89.1205 39.4876 88.7443 38.8313 88.5542 38.1122H70.224L71.1945 39.0905C71.5771 39.5105 71.783 40.0619 71.7693 40.6298C71.7557 41.1978 71.5236 41.7386 71.1212 42.1397L69.9999 43.2616L70.5664 44.6271H72.1523C72.4428 44.6276 72.7303 44.6854 72.9984 44.7972C73.2665 44.909 73.51 45.0726 73.7148 45.2786L73.7167 45.2765C73.9227 45.4816 74.086 45.7254 74.1975 45.9938C74.3089 46.2623 74.3662 46.5501 74.3662 46.8407V48.9257H80.1255C80.3157 48.2067 80.6919 47.5505 81.2163 47.0231C81.7407 46.4958 82.3948 46.1159 83.1127 45.9216C83.8306 45.7274 84.5869 45.7257 85.3057 45.9167C86.0245 46.1077 86.6802 46.4847 87.207 47.0097C89.8654 49.6679 87.971 54.229 84.2167 54.229C83.2819 54.2291 82.3734 53.9196 81.633 53.3489C80.8926 52.7781 80.3621 51.9782 80.1244 51.0741H74.365V53.1597C74.363 53.7461 74.1291 54.308 73.7145 54.7227C73.2998 55.1374 72.738 55.3713 72.1515 55.3733H70.5664L69.9999 56.7388L71.1216 57.8605C71.536 58.276 71.7686 58.8388 71.7686 59.4256C71.7686 60.0124 71.536 60.5752 71.1216 60.9907L70.2244 61.8878H88.5546C88.7447 61.1687 89.1209 60.5124 89.6453 59.9849C90.1697 59.4574 90.8237 59.0774 91.5417 58.8831C92.2596 58.6888 93.0161 58.687 93.735 58.878C94.4538 59.069 95.1096 59.446 95.6365 59.971C98.2949 62.6294 96.4003 67.1905 92.646 67.1905C91.7112 67.1903 90.8027 66.8804 90.0626 66.3094C89.3224 65.7383 88.7921 64.9383 88.5546 64.0341H68.0771L66.6539 65.4573C66.2383 65.8717 65.6755 66.1043 65.0887 66.1043C64.5019 66.1043 63.9391 65.8717 63.5236 65.4573L62.4023 64.3358L61.0367 64.9022V66.4882C61.0357 67.075 60.8022 67.6374 60.3873 68.0523C59.9724 68.4673 59.41 68.7008 58.8232 68.7019H56.7382V75.8261H71.6953C71.8853 75.107 72.2615 74.4507 72.7859 73.9232C73.3103 73.3957 73.9644 73.0157 74.6823 72.8214C75.4003 72.627 76.1567 72.6253 76.8756 72.8163C77.5944 73.0073 78.2503 73.3842 78.7771 73.9093C81.4355 76.5677 79.5412 81.1286 75.7869 81.1286C74.8521 81.1285 73.9436 80.8188 73.2034 80.2479C72.4632 79.677 71.9329 78.877 71.6953 77.9729H55.664C55.3791 77.9729 55.1059 77.8598 54.9044 77.6583C54.703 77.4569 54.5898 77.1836 54.5898 76.8987V68.7013H52.5048C52.2143 68.7007 51.9268 68.6429 51.6587 68.5311C51.3906 68.4193 51.1472 68.2557 50.9423 68.0497L50.9402 68.0519C50.7343 67.8467 50.5709 67.6029 50.4595 67.3345C50.348 67.0661 50.2907 66.7783 50.2908 66.4876V64.9022L48.9251 64.3358L47.8037 65.4575C47.6393 65.622 47.4501 65.7595 47.2429 65.8649V67.246C47.2429 69.8214 44.6214 72.0462 40.3835 73.5612C31.9552 76.5741 18.413 76.5741 9.98491 73.5612C6.29526 72.2421 3.83139 70.3851 3.25542 68.2272C3.07026 67.7626 3.13413 67.7755 3.12553 67.246V29.4606C3.12553 26.881 5.7562 24.6571 9.98471 23.1454C18.4132 20.1323 31.955 20.1323 40.3833 23.1454C44.6216 24.6605 47.2427 26.8853 47.2427 29.4606L47.2384 34.1331C47.4474 34.2389 47.6381 34.3774 47.8035 34.5433L48.9257 35.664L50.2914 35.0976V33.5118C50.294 32.9256 50.5281 32.3641 50.9426 31.9495C51.3571 31.535 51.9186 31.3009 52.5048 31.2981H54.5898V23.1005C54.5898 22.8156 54.703 22.5424 54.9044 22.3409C55.1059 22.1394 55.3791 22.0263 55.664 22.0263H71.6945C71.8846 21.3072 72.2607 20.6509 72.7851 20.1234C73.3095 19.5959 73.9636 19.2159 74.6815 19.0216C75.3995 18.8272 76.156 18.8255 76.8748 19.0165C77.5936 19.2075 78.2495 19.5844 78.7763 20.1095C81.4347 22.7677 79.5404 27.3288 75.7861 27.3288C74.8513 27.3286 73.9429 27.0189 73.2027 26.448C72.4625 25.8771 71.9321 25.0772 71.6945 24.1731H56.7382V31.2987H58.8238C59.41 31.3015 59.9715 31.5356 60.386 31.9501C60.8005 32.3647 61.0346 32.9262 61.0373 33.5124V35.0976L62.4029 35.664L63.5246 34.5425C63.94 34.1281 64.5029 33.8954 65.0897 33.8954C65.6765 33.8954 66.2393 34.1281 66.6548 34.5425L68.0781 35.9657H88.5546C88.7923 35.0618 89.3225 34.2619 90.0626 33.6911C90.8027 33.1203 91.711 32.8105 92.6457 32.8103V32.8097Z" fill="white"/>
</svg>
