<svg width="100" height="100" viewBox="0 0 100 100" fill="none" xmlns="http://www.w3.org/2000/svg">
<path d="M50 32.317C40.2496 32.317 32.3172 40.2496 32.3172 50C32.3172 59.7504 40.2496 67.683 50 67.683C50.7551 67.683 51.3672 67.0709 51.3672 66.3158V33.6844C51.3672 32.9293 50.7551 32.3172 50 32.3172V32.317ZM48.6328 64.8865C41.0285 64.1939 35.0516 57.7818 35.0516 50C35.0516 42.2182 41.0285 35.8061 48.6328 35.1135V64.8865ZM92.9014 44.4639C90.3205 44.4639 88.1467 46.2393 87.5365 48.6328H55.4035C54.6484 48.6328 54.0363 49.2449 54.0363 50C54.0363 50.7551 54.6484 51.3672 55.4035 51.3672H87.5369C88.1477 53.7576 90.3211 55.5305 92.9016 55.5305C95.9541 55.5305 98.4377 53.0494 98.4377 50C98.4377 46.9506 95.9543 44.4639 92.9016 44.4639H92.9014ZM92.9014 52.7961C91.3564 52.7961 90.0996 51.5418 90.0996 50C90.0996 48.4582 91.3564 47.1982 92.9014 47.1982C94.4463 47.1982 95.7031 48.4551 95.7031 50C95.7031 51.5449 94.4463 52.7961 92.9014 52.7961ZM55.4035 41.075H66.958C67.4287 41.075 67.8664 40.8328 68.1164 40.434L70.9037 35.9871H80.2287C80.8389 38.3775 83.0102 40.1506 85.5879 40.1506C88.6404 40.1506 91.124 37.6695 91.124 34.6199C91.124 31.5703 88.6406 29.0838 85.5879 29.0838C83.0096 29.0838 80.8381 30.8592 80.2283 33.2527H70.1469C69.6762 33.2527 69.2385 33.4949 68.9885 33.8937L66.2012 38.3406H55.4033C54.6482 38.3406 54.0361 38.9527 54.0361 39.7078C54.0361 40.4629 54.6484 41.075 55.4035 41.075ZM85.5879 31.8182C87.1328 31.8182 88.3896 33.075 88.3896 34.6199C88.3896 36.1648 87.1328 37.4162 85.5879 37.4162C84.043 37.4162 82.7918 36.1619 82.7918 34.6199C82.7918 33.0779 84.0461 31.8182 85.5879 31.8182ZM56.3893 8.13379C56.3893 11.1863 58.8727 13.6699 61.9254 13.6699C64.9781 13.6699 67.4615 11.1865 67.4615 8.13379C67.4615 5.08105 64.9781 2.60332 61.9254 2.60332C58.8727 2.60332 56.3893 5.08438 56.3893 8.13379ZM64.727 8.13379C64.727 9.67871 63.4701 10.9355 61.9252 10.9355C60.3803 10.9355 59.1234 9.67871 59.1234 8.13379C59.1234 6.58887 60.3803 5.3377 61.9252 5.3377C63.4701 5.3377 64.727 6.59199 64.727 8.13379ZM54.6402 30.5555C54.8744 30.7131 55.1396 30.7883 55.402 30.7883C55.8418 30.7883 56.2736 30.5766 56.5375 30.184L62.9797 20.6068H70.7332C71.3436 23.0004 73.5172 24.7758 76.098 24.7758C79.1506 24.7758 81.6342 22.2924 81.6342 19.2396C81.6342 16.1869 79.1508 13.7035 76.098 13.7035C73.5172 13.7035 71.3434 15.4789 70.7332 17.8725H62.2516C61.7965 17.8725 61.3711 18.099 61.1172 18.4766L54.2687 28.6578C53.8473 29.2844 54.0135 30.1338 54.64 30.5553L54.6402 30.5555ZM76.0982 16.4381C77.6432 16.4381 78.9 17.6949 78.9 19.2398C78.9 20.7848 77.6432 22.0416 76.0982 22.0416C74.5533 22.0416 73.2965 20.7848 73.2965 19.2398C73.2965 17.6949 74.5533 16.4381 76.0982 16.4381ZM76.0982 86.2906C79.1508 86.2906 81.6344 83.8072 81.6344 80.7545C81.6344 77.7018 79.151 75.224 76.0982 75.224C73.5178 75.224 71.3443 76.9969 70.7336 79.3873H62.9797L56.5375 69.81C56.1158 69.1834 55.2664 69.0168 54.64 69.4387C54.0135 69.8602 53.8473 70.7096 54.2687 71.3361L61.1172 81.5176C61.3711 81.8953 61.7965 82.1217 62.2516 82.1217H70.7332C71.3436 84.5152 73.5174 86.2906 76.0982 86.2906ZM76.0982 77.9584C77.6432 77.9584 78.9 79.2127 78.9 80.7545C78.9 82.2963 77.6432 83.5563 76.0982 83.5563C74.5533 83.5563 73.2965 82.2994 73.2965 80.7545C73.2965 79.2096 74.5533 77.9584 76.0982 77.9584ZM56.3891 91.8605C56.3891 94.9131 58.8725 97.3967 61.9252 97.3967C64.9779 97.3967 67.4613 94.9133 67.4613 91.8605C67.4613 88.8078 64.9779 86.3244 61.9252 86.3244C58.8725 86.3244 56.3891 88.8078 56.3891 91.8605ZM64.7268 91.8605C64.7268 93.4055 63.4699 94.6623 61.925 94.6623C60.3801 94.6623 59.1232 93.4055 59.1232 91.8605C59.1232 90.3156 60.3801 89.0588 61.925 89.0588C63.4699 89.0588 64.7268 90.3156 64.7268 91.8605ZM91.1236 65.3801C91.1236 62.3275 88.6402 59.8439 85.5875 59.8439C83.0092 59.8439 80.8377 61.6193 80.2279 64.0129H70.9035L68.1162 59.5611C67.8662 59.1619 67.4285 58.9195 66.9574 58.9195H55.4029C54.6479 58.9195 54.0357 59.5316 54.0357 60.2867C54.0357 61.0418 54.6479 61.6539 55.4029 61.6539H66.2004L68.9877 66.1057C69.2377 66.5049 69.6754 66.7473 70.1465 66.7473H80.2281C80.8383 69.1377 83.0096 70.9106 85.5873 70.9106C88.6398 70.9106 91.1234 68.4295 91.1234 65.3801H91.1236ZM82.7914 65.3801C82.7914 63.8352 84.0457 62.5783 85.5875 62.5783C87.1293 62.5783 88.3893 63.8352 88.3893 65.3801C88.3893 66.925 87.1324 68.1762 85.5875 68.1762C84.0426 68.1762 82.7914 66.9219 82.7914 65.3801ZM11.4693 79.9721L20.0285 88.5258C20.4059 88.9027 20.9674 89.0262 21.4676 88.8416L30.7207 85.4334L38.5744 88.6889L42.7074 97.6432C42.9309 98.1273 43.4154 98.4373 43.9486 98.4373H49.9998C50.7549 98.4373 51.367 97.8252 51.367 97.0701V72.3723C51.367 71.6172 50.7549 71.0051 49.9998 71.0051C38.4145 71.0051 28.9891 61.582 28.9891 49.9998C28.9891 38.4176 38.4145 28.9889 49.9998 28.9889C50.7549 28.9889 51.367 28.3768 51.367 27.6217V2.92969C51.367 2.17461 50.7549 1.5625 49.9998 1.5625H43.9486C43.4156 1.5625 42.9311 1.87246 42.7074 2.35645L38.5744 11.3053L30.7207 14.5609L21.4676 11.1527C20.9672 10.9684 20.4055 11.0918 20.0283 11.4689L11.4691 20.0281C11.092 20.4053 10.9688 20.967 11.1529 21.4674L14.5611 30.7209L11.3105 38.5744L2.35664 42.7074C1.87246 42.9309 1.5625 43.4154 1.5625 43.9486V56.0512C1.5625 56.5844 1.87246 57.0689 2.35664 57.2924L11.3105 61.4254L14.5611 69.2789L11.1529 78.5324C10.9686 79.0328 11.092 79.5949 11.4693 79.9721ZM17.3119 69.7225C17.4307 69.4 17.4236 69.0445 17.2922 68.727L13.6326 59.8854C13.5012 59.5676 13.2547 59.3111 12.9424 59.167L4.29707 55.1764V44.8232L12.9424 40.8326C13.2547 40.6885 13.5012 40.432 13.6326 40.1143L17.2922 31.2727C17.4236 30.9551 17.4307 30.5996 17.3119 30.2771L14.0211 21.3428L21.3434 14.0205L30.2777 17.3113C30.6006 17.4301 30.9561 17.423 31.2738 17.2912L40.1154 13.6262C40.4328 13.4947 40.6891 13.2484 40.833 12.9365L44.8234 4.29648H48.633V26.2934C36.1734 27.0039 26.2551 37.3652 26.2551 49.9996C26.2551 62.634 36.1734 72.99 48.633 73.7004V95.7027H44.8236L40.8332 87.0574C40.6893 86.7453 40.433 86.499 40.1154 86.3674L31.2738 82.7023C30.9561 82.5705 30.6002 82.5635 30.2777 82.6822L21.3432 85.9732L14.0213 78.6561L17.3119 69.7221V69.7225Z" fill="white"/>
</svg>
