<svg width="72" height="72" viewBox="0 0 72 72" fill="none" xmlns="http://www.w3.org/2000/svg">
<g filter="url(#filter0_d_1087_3247)">
<path d="M3.3833 32.4293C3.3833 14.5191 17.9031 0 35.8133 0C53.7235 0 68.2433 14.5191 68.2433 32.4293C68.2433 50.3396 53.7235 64.8587 35.8133 64.8587C17.9031 64.8587 3.3833 50.3396 3.3833 32.4293Z" fill="black"/>
</g>
<path d="M33.0095 34.3229C33.0098 34.6212 33.1284 34.9071 33.3393 35.118C33.5503 35.3289 33.8363 35.4474 34.1345 35.4476H36.632C36.9303 35.4474 37.2163 35.3289 37.4272 35.118C37.6381 34.9071 37.7567 34.6212 37.757 34.3229V32.8232H33.0095V34.3229Z" fill="#EB8145"/>
<path d="M32.3459 30.6302C32.8186 30.967 32.868 31.5671 32.9421 32.0737L35.0084 32.0736V27.7621L33.6546 26.7461C33.5775 26.6855 33.5273 26.5972 33.5145 26.5001C33.5017 26.4029 33.5275 26.3046 33.5863 26.2262C33.6452 26.1478 33.7323 26.0955 33.8292 26.0806C33.9261 26.0656 34.0249 26.0892 34.1046 26.1463L35.3834 27.106L36.6584 26.1463C36.6977 26.1167 36.7426 26.0952 36.7903 26.083C36.838 26.0708 36.8876 26.068 36.9363 26.075C36.9851 26.082 37.032 26.0985 37.0743 26.1235C37.1167 26.1486 37.1537 26.1818 37.1833 26.2212C37.2128 26.2606 37.2343 26.3054 37.2466 26.3531C37.2588 26.4008 37.2615 26.4504 37.2545 26.4992C37.2476 26.5479 37.2311 26.5948 37.206 26.6372C37.1809 26.6795 37.1477 26.7166 37.1084 26.7461L35.7584 27.7584V32.0736H37.8246C37.9012 31.5487 37.9669 30.9621 38.4471 30.6115C39.2442 29.968 39.8182 29.0895 40.0873 28.101C40.3564 27.1125 40.307 26.0643 39.946 25.1055C39.5851 24.1467 38.931 23.3261 38.0769 22.7604C37.2227 22.1948 36.2119 21.9129 35.1883 21.9548C30.7445 22.1569 28.8159 27.8503 32.3459 30.6302Z" fill="#EB8145"/>
<path d="M33.7071 38.2296L34.1871 38.5108H36.5795L37.0671 38.2258C37.2391 38.1258 37.4343 38.0728 37.6333 38.0721H45.1333V27.9044C45.1333 27.7075 45.0946 27.5124 45.0192 27.3304C44.9438 27.1484 44.8333 26.9831 44.694 26.8438C44.5547 26.7046 44.3893 26.5941 44.2073 26.5188C44.0253 26.4434 43.8303 26.4047 43.6333 26.4048H40.9896C41.0594 27.3109 40.9074 28.2204 40.5468 29.0546C40.1861 29.8888 39.6276 30.6226 38.9196 31.1924C38.7923 31.2869 38.7031 31.4239 38.6683 31.5786C38.586 31.9893 38.5321 32.4052 38.5071 32.8233V34.323C38.5068 34.8201 38.3092 35.2969 37.9576 35.6484C37.606 35.9999 37.1292 36.1974 36.6321 36.1975H34.1346C33.6374 36.1974 33.1606 35.9999 32.809 35.6484C32.4574 35.2969 32.2598 34.8201 32.2596 34.323V32.8233C32.2322 32.3942 32.1784 31.9673 32.0983 31.5448C32.0631 31.4134 31.9853 31.2974 31.8771 31.2149C31.1964 30.6765 30.6505 29.9868 30.2827 29.2007C29.915 28.4146 29.7354 27.5536 29.7583 26.686C29.7621 26.5922 29.7658 26.4985 29.7733 26.4048H27.1333C26.9363 26.4047 26.7413 26.4434 26.5593 26.5188C26.3773 26.5941 26.2119 26.7046 26.0726 26.8438C25.9333 26.9831 25.8228 27.1484 25.7474 27.3304C25.672 27.5124 25.6333 27.7075 25.6333 27.9044V38.0721H33.1333C33.3351 38.0733 33.533 38.1276 33.7071 38.2296Z" fill="#EB8145"/>
<path d="M45.1333 38.8218H37.6333C37.5672 38.8219 37.5023 38.84 37.4458 38.8743L36.7821 39.2605H33.9846C33.8592 39.2054 33.2762 38.798 33.1333 38.8218H25.6333C25.4346 38.8224 25.2442 38.9015 25.1036 39.042C24.9631 39.1825 24.8839 39.3729 24.8833 39.5717C24.8841 40.2675 25.161 40.9347 25.6531 41.4267C26.1452 41.9187 26.8124 42.1954 27.5083 42.1961H43.2583C43.9542 42.1954 44.6214 41.9187 45.1135 41.4267C45.6056 40.9347 45.8825 40.2675 45.8833 39.5717C45.8827 39.3729 45.8035 39.1825 45.663 39.0421C45.5224 38.9016 45.332 38.8224 45.1333 38.8218Z" fill="#EB8145"/>
<defs>
<filter id="filter0_d_1087_3247" x="4.86374e-05" y="0" width="71.6265" height="71.6254" filterUnits="userSpaceOnUse" color-interpolation-filters="sRGB">
<feFlood flood-opacity="0" result="BackgroundImageFix"/>
<feColorMatrix in="SourceAlpha" type="matrix" values="0 0 0 0 0 0 0 0 0 0 0 0 0 0 0 0 0 0 127 0" result="hardAlpha"/>
<feOffset dy="3.38325"/>
<feGaussianBlur stdDeviation="1.69163"/>
<feComposite in2="hardAlpha" operator="out"/>
<feColorMatrix type="matrix" values="0 0 0 0 0 0 0 0 0 0 0 0 0 0 0 0 0 0 0.25 0"/>
<feBlend mode="normal" in2="BackgroundImageFix" result="effect1_dropShadow_1087_3247"/>
<feBlend mode="normal" in="SourceGraphic" in2="effect1_dropShadow_1087_3247" result="shape"/>
</filter>
</defs>
</svg>
