<svg width="70" height="72" viewBox="0 0 70 72" fill="none" xmlns="http://www.w3.org/2000/svg">
<g filter="url(#filter0_d_262_1022)">
<path d="M4.30469 30.6949C4.30469 13.7426 18.0473 0 34.9996 0C51.9519 0 65.6944 13.7426 65.6944 30.6949V34.1638C65.6944 51.1161 51.9519 64.8587 34.9996 64.8587C18.0473 64.8587 4.30469 51.1161 4.30469 34.1638V30.6949Z" fill="white"/>
</g>
<path fill-rule="evenodd" clip-rule="evenodd" d="M35 18.707L35.2326 18.7089C42.8171 18.8331 49 25.0188 49 32.7562L48.9981 32.9896C48.8724 40.598 42.6126 46.707 35 46.707L34.7674 46.7051C27.1829 46.5809 21 40.3948 21 32.7562C21 24.9399 27.3097 18.707 35 18.707ZM44.5863 33.6318L33.0445 36.5226C32.9354 36.55 32.8259 36.5628 32.7184 36.5628L32.593 36.5569C32.3028 36.5294 32.0319 36.4076 31.8196 36.2154L30.6937 40.1344L30.6784 40.2214C30.5387 41.2324 31.7185 42.0589 32.9444 41.4337L43.5999 35.3714L43.7276 35.295C44.4682 34.828 44.7527 34.2128 44.5863 33.6318ZM30.9866 25.2256C30.1803 24.6073 28.881 25.2157 28.8095 26.5869L28.7321 38.846C28.7261 39.8068 29.1262 40.4157 29.7456 40.5695L33.0129 29.1291L33.0491 29.0199C33.1975 28.6289 33.5145 28.3427 33.8913 28.222L31.0607 25.2872L30.9866 25.2256ZM33.0411 24.2266C32.2662 23.8187 31.5913 23.88 31.1716 24.315L39.4459 32.8646C39.7689 33.1982 39.8833 33.657 39.7923 34.0793L43.7492 33.0948L43.8396 33.0614C44.778 32.6723 44.9005 31.243 43.7492 30.4958L33.1712 24.2989L33.0411 24.2266Z" fill="#EB8145"/>
<defs>
<filter id="filter0_d_262_1022" x="0.921435" y="0" width="68.1571" height="71.6254" filterUnits="userSpaceOnUse" color-interpolation-filters="sRGB">
<feFlood flood-opacity="0" result="BackgroundImageFix"/>
<feColorMatrix in="SourceAlpha" type="matrix" values="0 0 0 0 0 0 0 0 0 0 0 0 0 0 0 0 0 0 127 0" result="hardAlpha"/>
<feOffset dy="3.38325"/>
<feGaussianBlur stdDeviation="1.69163"/>
<feComposite in2="hardAlpha" operator="out"/>
<feColorMatrix type="matrix" values="0 0 0 0 0 0 0 0 0 0 0 0 0 0 0 0 0 0 0.25 0"/>
<feBlend mode="normal" in2="BackgroundImageFix" result="effect1_dropShadow_262_1022"/>
<feBlend mode="normal" in="SourceGraphic" in2="effect1_dropShadow_262_1022" result="shape"/>
</filter>
</defs>
</svg>
