<svg width="44" height="43" viewBox="0 0 44 43" fill="none" xmlns="http://www.w3.org/2000/svg">
<rect x="0.563965" y="0.0244141" width="42.7111" height="42.7111" rx="21.3556" fill="#EB8145"/>
<path d="M11.9196 19.3799C12.6996 15.5639 15.5896 12.5099 19.3256 11.4699C19.6396 11.3829 19.7956 11.3389 19.8806 11.4319C19.9656 11.5259 19.9026 11.6799 19.7786 11.9899L18.9196 13.8799M23.9196 11.3799C27.7356 12.1599 30.7896 15.0499 31.8296 18.7859C31.9166 19.0999 31.9606 19.2559 31.8676 19.3409C31.7736 19.4259 31.6196 19.3629 31.3096 19.2389L29.4196 18.3799M31.9196 23.3799C31.1396 27.1959 28.2496 30.2499 24.5136 31.2899C24.1996 31.3769 24.0436 31.4209 23.9586 31.3279C23.8736 31.2339 23.9366 31.0799 24.0606 30.7699L24.9196 28.8799M19.9196 31.3799C16.1036 30.5999 13.0496 27.7099 12.0096 23.9739C11.9226 23.6599 11.8786 23.5039 11.9716 23.4189C12.0656 23.3339 12.2196 23.3969 12.5296 23.5209L14.4196 24.3799" stroke="white" stroke-width="1.5" stroke-linecap="round"/>
<path d="M18.5325 21.0448L22.0315 16.5528C22.3055 16.2018 22.8185 16.4208 22.8185 16.8888V20.3648C22.8185 20.6448 23.0185 20.8728 23.2675 20.8728H24.9695C25.3555 20.8728 25.5615 21.3868 25.3065 21.7148L21.8075 26.2068C21.5335 26.5578 21.0205 26.3388 21.0205 25.8708V22.3948C21.0205 22.1148 20.8205 21.8868 20.5715 21.8868H18.8695C18.4835 21.8868 18.2765 21.3728 18.5325 21.0448Z" stroke="white" stroke-width="1.5" stroke-linecap="round" stroke-linejoin="round"/>
</svg>
