<svg width="44" height="44" viewBox="0 0 44 44" fill="none" xmlns="http://www.w3.org/2000/svg">
<rect x="0.563965" y="0.891113" width="42.7111" height="42.7111" rx="21.3556" fill="#EB8145"/>
<g clip-path="url(#clip0_515_25)">
<path d="M21.9196 11.2461C22.3853 11.2461 22.8448 11.3542 23.2614 11.5625L31.2614 15.5625C32.2777 16.0711 32.9194 17.1101 32.9196 18.2461V26.2461C32.9196 26.8033 32.7642 27.3503 32.4713 27.8242C32.1785 28.2979 31.7595 28.6806 31.2614 28.9297L23.2614 32.9297C22.8448 33.138 22.3853 33.2471 21.9196 33.2471C21.4538 33.2471 20.9944 33.138 20.5778 32.9297L12.5778 28.9297C11.5615 28.421 10.9196 27.3821 10.9196 26.2461V18.2461C10.9196 17.689 11.075 17.1428 11.3678 16.6689C11.6607 16.1951 12.0795 15.8117 12.5778 15.5625L20.5778 11.5625C20.9943 11.3542 21.4538 11.2461 21.9196 11.2461ZM21.9196 13.2461C20.5936 13.2461 19.3221 13.7734 18.3844 14.7109C17.4468 15.6485 16.9197 16.9201 16.9196 18.2461V26.2461C16.9196 27.5722 17.4467 28.8445 18.3844 29.7822C19.3221 30.7197 20.5936 31.2461 21.9196 31.2461C23.2455 31.2461 24.5171 30.7197 25.4547 29.7822C26.3924 28.8445 26.9196 27.5722 26.9196 26.2461V18.2461C26.9195 16.9201 26.3923 15.6485 25.4547 14.7109C24.517 13.7734 23.2456 13.2461 21.9196 13.2461ZM21.9196 17.292C22.1808 17.2919 22.4319 17.3937 22.6188 17.5762C22.8057 17.7588 22.9136 18.0083 22.9196 18.2695C22.9225 18.4024 22.899 18.5345 22.8502 18.6582C22.8014 18.782 22.7283 18.895 22.6354 18.9902C22.5423 19.0854 22.4309 19.1612 22.3082 19.2129C22.1855 19.2646 22.0537 19.2919 21.9205 19.292C21.7875 19.292 21.6555 19.2654 21.5328 19.2139C21.4102 19.1623 21.2988 19.0863 21.2057 18.9912C21.1126 18.896 21.0388 18.783 20.9899 18.6592C20.9409 18.5353 20.9176 18.4027 20.9205 18.2695C20.9263 18.0084 21.0337 17.7599 21.2203 17.5771C21.4071 17.3944 21.6583 17.2921 21.9196 17.292Z" stroke="white" stroke-width="2"/>
</g>
<defs>
<clipPath id="clip0_515_25">
<rect width="24" height="24" fill="white" transform="translate(9.91956 10.2466)"/>
</clipPath>
</defs>
</svg>
