<svg width="44" height="44" viewBox="0 0 44 44" fill="none" xmlns="http://www.w3.org/2000/svg">
<rect x="0.563965" y="0.313477" width="42.7111" height="42.7111" rx="21.3556" fill="#EB8145"/>
<path d="M20.9196 17.4989C20.3344 17.2921 19.8278 16.9088 19.4696 16.4019C19.1114 15.8951 18.9193 15.2896 18.9196 14.6689C18.9196 13.8733 19.2357 13.1102 19.7983 12.5476C20.3609 11.985 21.1239 11.6689 21.9196 11.6689C22.7152 11.6689 23.4783 11.985 24.0409 12.5476C24.6035 13.1102 24.9196 13.8733 24.9196 14.6689C24.9196 15.9789 24.0796 17.0889 22.9196 17.4989V20.3089C22.2658 20.1233 21.5733 20.1233 20.9196 20.3089V17.4989ZM28.2196 30.7689C27.6805 30.4617 27.2504 29.9944 26.9888 29.4318C26.7272 28.8692 26.6471 28.2391 26.7596 27.6289L24.3196 26.2189C24.7996 25.7589 25.1596 25.1689 25.3196 24.4889L27.7596 25.8989C28.6996 25.0889 30.0796 24.9289 31.2096 25.5789C32.6496 26.4089 33.1396 28.2389 32.3096 29.6689C32.114 30.0105 31.8529 30.31 31.5412 30.5503C31.2294 30.7906 30.8733 30.9669 30.4932 31.0692C30.1132 31.1714 29.7167 31.1975 29.3265 31.146C28.9363 31.0944 28.5601 30.9663 28.2196 30.7689ZM12.6196 25.5689C13.7496 24.9189 15.1296 25.0889 16.0696 25.8889L18.5196 24.4789C18.6796 25.1689 19.0296 25.7489 19.5196 26.2089L17.0696 27.6189C17.2996 28.8389 16.7496 30.1189 15.6196 30.7689C14.1796 31.5989 12.3496 31.1089 11.5196 29.6689C11.3224 29.3276 11.1944 28.9507 11.143 28.5598C11.0915 28.1689 11.1176 27.7717 11.2198 27.3909C11.3219 27.0102 11.4982 26.6533 11.7383 26.3406C11.9785 26.028 12.278 25.7658 12.6196 25.5689ZM23.9196 23.6689C23.9196 24.1994 23.7089 24.7081 23.3338 25.0832C22.9587 25.4582 22.45 25.6689 21.9196 25.6689C21.3892 25.6689 20.8804 25.4582 20.5054 25.0832C20.1303 24.7081 19.9196 24.1994 19.9196 23.6689C19.9196 23.1385 20.1303 22.6298 20.5054 22.2547C20.8804 21.8797 21.3892 21.6689 21.9196 21.6689C22.45 21.6689 22.9587 21.8797 23.3338 22.2547C23.7089 22.6298 23.9196 23.1385 23.9196 23.6689ZM26.9196 23.6689L26.8896 24.2389L25.4196 23.3789C25.3196 22.3089 24.7496 21.3789 23.9196 20.7889V19.0789C25.6896 19.8589 26.9196 21.6189 26.9196 23.6689ZM24.8896 27.6989C24.0596 28.3089 23.0296 28.6689 21.9196 28.6689C20.8096 28.6689 19.7796 28.3089 18.9496 27.6689L20.4196 26.8389C20.8796 27.0489 21.3896 27.1689 21.9196 27.1689C22.4496 27.1689 22.9496 27.0489 23.4196 26.8389L24.8896 27.6989ZM16.9496 24.2289L16.9196 23.6689C16.9196 21.6189 18.1496 19.8589 19.9196 19.0889V20.7989C19.0896 21.3789 18.5196 22.3089 18.4196 23.3689L16.9496 24.2289Z" fill="white"/>
</svg>
