<svg width="43" height="43" viewBox="0 0 43 43" fill="none" xmlns="http://www.w3.org/2000/svg">
<rect width="42.7111" height="42.7111" rx="21.3556" fill="#EB8145"/>
<g clip-path="url(#clip0_1188_305)">
<path d="M31.0381 10.8555H11.6731C10.8068 10.8555 10.1056 11.5567 10.1056 12.423V25.788C10.1056 26.6542 10.8068 27.3555 11.6731 27.3555H18.3556V31.1055H15.7306C15.5243 31.1055 15.3556 31.2742 15.3556 31.4805C15.3556 31.6867 15.5243 31.8555 15.7306 31.8555H26.9806C27.1868 31.8555 27.3556 31.6867 27.3556 31.4805C27.3556 31.2742 27.1868 31.1055 26.9806 31.1055H24.3556V27.3555H31.0381C31.9043 27.3555 32.6056 26.6542 32.6056 25.788V12.423C32.6056 11.5567 31.9043 10.8555 31.0381 10.8555ZM11.6731 11.6055H31.0381C31.4881 11.6055 31.8556 11.9692 31.8556 12.423V24.3555H10.8556V12.423C10.8556 11.973 11.2193 11.6055 11.6731 11.6055ZM23.6056 31.1055H19.1056V27.3555H23.6056V31.1055ZM31.0381 26.6055H11.6731C11.2231 26.6055 10.8556 26.2417 10.8556 25.788V25.1055H31.8556V25.788C31.8556 26.238 31.4918 26.6055 31.0381 26.6055Z" fill="white" stroke="white"/>
<path d="M16.8556 19.4805C16.7019 19.4805 16.5631 19.5742 16.5069 19.7167L15.8506 21.3555H14.5494C14.3806 20.7105 13.7994 20.2305 13.1019 20.2305C12.2731 20.2305 11.6019 20.9017 11.6019 21.7305C11.6019 22.5592 12.2731 23.2305 13.1019 23.2305C13.7994 23.2305 14.3806 22.7505 14.5494 22.1055H16.1019C16.2556 22.1055 16.3944 22.0117 16.4506 21.8692L17.1069 20.2305H18.6781C19.3606 20.9242 20.3056 21.3555 21.3519 21.3555C22.3981 21.3555 23.3431 20.9242 24.0256 20.2305H25.5819L26.2456 22.2255C26.2981 22.3792 26.4406 22.4805 26.6019 22.4805H28.3119C28.5706 22.9267 29.0506 23.2305 29.6019 23.2305C30.4306 23.2305 31.1019 22.5592 31.1019 21.7305C31.1019 20.9017 30.4306 20.2305 29.6019 20.2305C28.7731 20.2305 28.1019 20.9017 28.1019 21.7305H26.8719L26.2081 19.7355C26.1556 19.5817 26.0131 19.4805 25.8519 19.4805H24.5956C24.7944 19.1355 24.9444 18.7567 25.0269 18.3555H28.1544C28.3231 19.0005 28.9044 19.4805 29.6019 19.4805C30.4306 19.4805 31.1019 18.8092 31.1019 17.9805C31.1019 17.1517 30.4306 16.4805 29.6019 16.4805C28.9044 16.4805 28.3231 16.9605 28.1544 17.6055H25.1019C25.1019 17.2155 25.0419 16.8367 24.9294 16.4805H25.8519C26.0056 16.4805 26.1444 16.3867 26.2006 16.2442L26.8569 14.6055H28.1581C28.3269 15.2505 28.9081 15.7305 29.6056 15.7305C30.4344 15.7305 31.1056 15.0592 31.1056 14.2305C31.1056 13.4017 30.4344 12.7305 29.6056 12.7305C28.9081 12.7305 28.3269 13.2105 28.1581 13.8555H26.6056C26.4519 13.8555 26.3131 13.9492 26.2569 14.0917L25.6006 15.7305H24.5956C23.9469 14.613 22.7356 13.8555 21.3519 13.8555C19.9681 13.8555 18.7606 14.613 18.1081 15.7305H17.1031L16.4469 14.0917C16.3906 13.9492 16.2519 13.8555 16.0981 13.8555H14.5456C14.3769 13.2105 13.7956 12.7305 13.0981 12.7305C12.2694 12.7305 11.5981 13.4017 11.5981 14.2305C11.5981 15.0592 12.2694 15.7305 13.0981 15.7305C13.7956 15.7305 14.3769 15.2505 14.5456 14.6055H15.8469L16.5031 16.2442C16.5594 16.3867 16.6981 16.4805 16.8519 16.4805H17.7744C17.6619 16.8367 17.6019 17.2155 17.6019 17.6055H14.5531C14.3844 16.9605 13.8031 16.4805 13.1056 16.4805C12.2769 16.4805 11.6056 17.1517 11.6056 17.9805C11.6056 18.8092 12.2769 19.4805 13.1056 19.4805C13.8031 19.4805 14.3844 19.0005 14.5531 18.3555H17.6806C17.7631 18.7567 17.9131 19.1355 18.1119 19.4805H16.8556ZM13.1056 22.4805C12.6931 22.4805 12.3556 22.143 12.3556 21.7305C12.3556 21.318 12.6931 20.9805 13.1056 20.9805C13.5181 20.9805 13.8556 21.318 13.8556 21.7305C13.8556 22.143 13.5181 22.4805 13.1056 22.4805ZM29.6056 20.9805C30.0181 20.9805 30.3556 21.318 30.3556 21.7305C30.3556 22.143 30.0181 22.4805 29.6056 22.4805C29.1931 22.4805 28.8556 22.143 28.8556 21.7305C28.8556 21.318 29.1931 20.9805 29.6056 20.9805ZM29.6056 17.2305C30.0181 17.2305 30.3556 17.568 30.3556 17.9805C30.3556 18.393 30.0181 18.7305 29.6056 18.7305C29.1931 18.7305 28.8556 18.393 28.8556 17.9805C28.8556 17.568 29.1931 17.2305 29.6056 17.2305ZM29.6056 13.4805C30.0181 13.4805 30.3556 13.818 30.3556 14.2305C30.3556 14.643 30.0181 14.9805 29.6056 14.9805C29.1931 14.9805 28.8556 14.643 28.8556 14.2305C28.8556 13.818 29.1931 13.4805 29.6056 13.4805ZM13.1056 14.9805C12.6931 14.9805 12.3556 14.643 12.3556 14.2305C12.3556 13.818 12.6931 13.4805 13.1056 13.4805C13.5181 13.4805 13.8556 13.818 13.8556 14.2305C13.8556 14.643 13.5181 14.9805 13.1056 14.9805ZM13.1056 18.7305C12.6931 18.7305 12.3556 18.393 12.3556 17.9805C12.3556 17.568 12.6931 17.2305 13.1056 17.2305C13.5181 17.2305 13.8556 17.568 13.8556 17.9805C13.8556 18.393 13.5181 18.7305 13.1056 18.7305ZM21.3556 14.6055C23.0094 14.6055 24.3556 15.9517 24.3556 17.6055C24.3556 19.2592 23.0094 20.6055 21.3556 20.6055C19.7019 20.6055 18.3556 19.2592 18.3556 17.6055C18.3556 15.9517 19.7019 14.6055 21.3556 14.6055Z" fill="white"/>
</g>
<defs>
<clipPath id="clip0_1188_305">
<rect width="24" height="24" fill="white" transform="translate(9.35559 9.35547)"/>
</clipPath>
</defs>
</svg>
