<svg width="44" height="43" viewBox="0 0 44 43" fill="none" xmlns="http://www.w3.org/2000/svg">
<rect x="0.563965" y="0.180176" width="42.7111" height="42.7111" rx="21.3556" fill="#EB8145"/>
<path d="M27.2277 14.5356V28.5356H16.6115V14.5356H27.2277ZM21.1613 18.0005C20.1313 19.2001 19.4456 20.011 19.1163 20.4204C18.6468 21.0044 18.4191 21.6959 18.4191 22.4468C18.4191 23.394 18.7709 24.2278 19.4454 24.8931V24.894C20.1214 25.5617 20.9653 25.9018 21.9171 25.9019C22.869 25.9019 23.7135 25.5611 24.3907 24.894L24.3898 24.8931C25.0671 24.2272 25.419 23.3916 25.4191 22.4419C25.4191 21.6933 25.1977 21.0013 24.7296 20.4194C24.4043 20.015 23.7156 19.2035 22.6769 17.9985L21.9181 17.1187L21.1613 18.0005Z" stroke="white" stroke-width="2"/>
</svg>
