<svg width="69" height="72" viewBox="0 0 69 72" fill="none" xmlns="http://www.w3.org/2000/svg">
<g filter="url(#filter0_d_262_1028)">
<path d="M4.07422 30.6949C4.07422 13.7426 17.8168 0 34.7691 0C51.7214 0 65.464 13.7426 65.464 30.6949V34.1638C65.464 51.1161 51.7214 64.8587 34.7691 64.8587C17.8168 64.8587 4.07422 51.1161 4.07422 34.1638V30.6949Z" fill="white"/>
</g>
<path fill-rule="evenodd" clip-rule="evenodd" d="M21.7031 31.1742C21.9554 27.8205 23.4656 24.686 25.9313 22.3988C28.397 20.1117 31.636 18.8408 34.9991 18.8408C33.8925 18.8408 32.9058 19.3262 32.0925 20.0688C31.2858 20.8075 30.6045 21.8395 30.0525 23.0582C29.4978 24.2848 29.0658 25.7195 28.7738 27.2755C28.537 28.5629 28.3952 29.866 28.3498 31.1742H21.7031ZM21.7031 33.1742H28.3498C28.3978 34.5102 28.5405 35.8248 28.7738 37.0728C29.0671 38.6288 29.4978 40.0635 30.0525 41.2902C30.6045 42.5088 31.2858 43.5408 32.0925 44.2795C32.9058 45.0222 33.8925 45.5075 34.9991 45.5075C27.9725 45.5075 22.2138 40.0715 21.7031 33.1742Z" fill="#EB8145"/>
<path d="M34.9997 20.7012C34.633 20.7012 34.1597 20.8572 33.609 21.3612C33.0544 21.8692 32.4984 22.6652 32.0077 23.7492C31.5197 24.8265 31.1237 26.1265 30.8517 27.5798C30.6384 28.7238 30.505 29.9372 30.457 31.1745H39.5424C39.4989 29.9682 39.367 28.7668 39.1477 27.5798C38.8757 26.1265 38.481 24.8265 37.9917 23.7492C37.501 22.6652 36.9464 21.8692 36.3917 21.3625C35.8397 20.8572 35.3664 20.7012 34.9997 20.7012ZM30.8517 36.7692C31.1237 38.2225 31.5197 39.5225 32.0077 40.5998C32.4984 41.6838 33.0544 42.4798 33.6077 42.9865C34.1597 43.4918 34.6344 43.6478 34.9997 43.6478C35.3664 43.6478 35.8397 43.4918 36.3904 42.9878C36.9464 42.4798 37.501 41.6838 37.9917 40.5998C38.4797 39.5225 38.8757 38.2225 39.1477 36.7692C39.3624 35.6252 39.4957 34.4118 39.5424 33.1745H30.457C30.5037 34.4118 30.637 35.6252 30.8517 36.7692Z" fill="#EB8145"/>
<path d="M35 18.8408C36.108 18.8408 37.0933 19.3262 37.9067 20.0688C38.7133 20.8075 39.396 21.8395 39.9467 23.0582C40.5027 24.2848 40.9333 25.7195 41.2253 27.2755C41.4587 28.5235 41.6013 29.8382 41.6493 31.1742H48.296C48.0438 27.8205 46.5335 24.686 44.0678 22.3988C41.6021 20.1117 38.3632 18.8408 35 18.8408ZM41.2253 37.0728C40.9333 38.6288 40.5027 40.0635 39.9467 41.2902C39.396 42.5088 38.7133 43.5408 37.9067 44.2795C37.0933 45.0222 36.108 45.5075 35 45.5075C42.0267 45.5075 47.7853 40.0715 48.296 33.1742H41.6493C41.6039 34.4824 41.4622 35.7854 41.2253 37.0728Z" fill="#EB8145"/>
<defs>
<filter id="filter0_d_262_1028" x="0.690967" y="0" width="68.1571" height="71.6254" filterUnits="userSpaceOnUse" color-interpolation-filters="sRGB">
<feFlood flood-opacity="0" result="BackgroundImageFix"/>
<feColorMatrix in="SourceAlpha" type="matrix" values="0 0 0 0 0 0 0 0 0 0 0 0 0 0 0 0 0 0 127 0" result="hardAlpha"/>
<feOffset dy="3.38325"/>
<feGaussianBlur stdDeviation="1.69163"/>
<feComposite in2="hardAlpha" operator="out"/>
<feColorMatrix type="matrix" values="0 0 0 0 0 0 0 0 0 0 0 0 0 0 0 0 0 0 0.25 0"/>
<feBlend mode="normal" in2="BackgroundImageFix" result="effect1_dropShadow_262_1028"/>
<feBlend mode="normal" in="SourceGraphic" in2="effect1_dropShadow_262_1028" result="shape"/>
</filter>
</defs>
</svg>
