<svg width="68" height="68" viewBox="0 0 68 68" fill="none" xmlns="http://www.w3.org/2000/svg">
<g filter="url(#filter0_d_1188_181)">
<circle cx="33.9072" cy="31.9423" r="31.9423" fill="white"/>
</g>
<path fill-rule="evenodd" clip-rule="evenodd" d="M22.0851 15.6838L24.2393 15.8084C24.4478 15.8214 24.6484 15.8926 24.8185 16.0139C24.9886 16.1352 25.1212 16.3017 25.2014 16.4946L28.3385 23.8146C28.4184 24.007 28.4431 24.2179 28.4099 24.4236C28.3767 24.6293 28.2868 24.8217 28.1505 24.9793L25.4105 28.1193C25.3033 28.2437 25.2361 28.3976 25.2175 28.5608C25.199 28.724 25.2301 28.889 25.3067 29.0343C28.9251 35.9385 35.4924 38.6837 37.4584 39.3699C37.6206 39.4276 37.797 39.4326 37.9622 39.3842C38.1275 39.3357 38.2732 39.2363 38.3786 39.1001L41.2431 35.3986C41.3997 35.1988 41.6188 35.0575 41.8654 34.9973C42.1119 34.937 42.3715 34.9614 42.6025 35.0664L49.902 38.3937C50.1313 38.5012 50.3178 38.6827 50.4316 38.909C50.5454 39.1353 50.5799 39.3932 50.5295 39.6414L50.1942 41.2414C50.0042 42.1399 49.6384 42.9919 49.118 43.7485C48.5975 44.5051 47.9326 45.1514 47.1615 45.6501C45.1746 46.8979 42.6229 47.5219 39.3602 46.6069C29.2583 43.7577 23.5485 37.1032 20.4739 32.944C17.3993 28.7848 16.2074 24.6258 16.9812 21.2367C17.5041 18.97 19.1772 17.2022 20.2229 16.308C20.7415 15.8709 21.4073 15.6481 22.0845 15.6853L22.0851 15.6838Z" fill="#EB8145"/>
<defs>
<filter id="filter0_d_1188_181" x="7.15256e-07" y="0" width="67.8144" height="67.8144" filterUnits="userSpaceOnUse" color-interpolation-filters="sRGB">
<feFlood flood-opacity="0" result="BackgroundImageFix"/>
<feColorMatrix in="SourceAlpha" type="matrix" values="0 0 0 0 0 0 0 0 0 0 0 0 0 0 0 0 0 0 127 0" result="hardAlpha"/>
<feOffset dy="1.96489"/>
<feGaussianBlur stdDeviation="0.982444"/>
<feComposite in2="hardAlpha" operator="out"/>
<feColorMatrix type="matrix" values="0 0 0 0 0 0 0 0 0 0 0 0 0 0 0 0 0 0 0.25 0"/>
<feBlend mode="normal" in2="BackgroundImageFix" result="effect1_dropShadow_1188_181"/>
<feBlend mode="normal" in="SourceGraphic" in2="effect1_dropShadow_1188_181" result="shape"/>
</filter>
</defs>
</svg>
