<svg width="44" height="44" viewBox="0 0 44 44" fill="none" xmlns="http://www.w3.org/2000/svg">
<rect x="0.459717" y="0.313965" width="42.7111" height="42.7111" rx="21.3556" fill="#EB8145"/>
<path fill-rule="evenodd" clip-rule="evenodd" d="M23.2403 15.6693C23.0681 14.8216 22.6082 14.0594 21.9385 13.512C21.2687 12.9646 20.4303 12.6655 19.5653 12.6655C18.7003 12.6655 17.8618 12.9646 17.1921 13.512C16.5223 14.0594 16.0624 14.8216 15.8903 15.6693H12.8153V17.1693H15.8903C16.0624 18.017 16.5223 18.7791 17.1921 19.3266C17.8618 19.874 18.7003 20.173 19.5653 20.173C20.4303 20.173 21.2687 19.874 21.9385 19.3266C22.6082 18.7791 23.0681 18.017 23.2403 17.1693H30.8153V15.6693H23.2403ZM20.3903 26.1693H12.8153V27.6693H20.3903C20.5624 28.517 21.0223 29.2791 21.6921 29.8266C22.3618 30.374 23.2003 30.673 24.0653 30.673C24.9303 30.673 25.7687 30.374 26.4385 29.8266C27.1082 29.2791 27.5681 28.517 27.7403 27.6693H30.8153V26.1693H27.7403C27.5681 25.3216 27.1082 24.5594 26.4385 24.012C25.7687 23.4646 24.9303 23.1655 24.0653 23.1655C23.2003 23.1655 22.3618 23.4646 21.6921 24.012C21.0223 24.5594 20.5624 25.3216 20.3903 26.1693Z" fill="white"/>
</svg>
