<svg width="44" height="44" viewBox="0 0 44 44" fill="none" xmlns="http://www.w3.org/2000/svg">
<rect x="0.459717" y="0.736328" width="42.7111" height="42.7111" rx="21.3556" fill="#EB8145"/>
<g clip-path="url(#clip0_515_161)">
<path d="M31.4319 26.0625C31.4319 26.4381 31.2919 26.9277 31.0168 27.4043C30.7761 27.8212 30.4751 28.1539 30.1858 28.3564L30.0617 28.4355L23.1848 32.4062C22.8601 32.5935 22.3658 32.7168 21.8147 32.7168C21.2645 32.7168 20.7701 32.5938 20.4445 32.4062H20.4455L13.5686 28.4355C13.2431 28.2476 12.8887 27.8809 12.6135 27.4043C12.3385 26.9278 12.1985 26.4382 12.1985 26.0625V19.418L14.0344 20.1416L16.1233 20.9629V25.6465L16.7463 25.9004L21.4377 27.8115L21.8156 27.9658L22.1926 27.8115L26.885 25.9004L27.508 25.6465V20.9629L29.5959 20.1416L31.4319 19.418V26.0625ZM23.8576 20.2812L21.8147 21.1133L19.7727 20.2812L21.8147 19.4492L23.8576 20.2812ZM21.8147 11.4668C22.2964 11.4668 22.7349 11.5613 23.0549 11.7109L23.1848 11.7783L30.0617 15.748V15.749C30.3872 15.9371 30.7416 16.3028 31.0168 16.7793C31.292 17.2559 31.4319 17.7456 31.4319 18.1211V19.0283L29.6076 18.2852L24.9162 16.3721L24.5451 16.2207L24.1721 16.3682L21.8215 17.292L21.8156 17.29L21.8088 17.292L19.4602 16.3682L19.0871 16.2207L18.716 16.3721L14.0227 18.2842L12.1985 19.0273V18.1211C12.1985 17.7455 12.3383 17.2558 12.6135 16.7793C12.8886 16.3029 13.243 15.9371 13.5686 15.749L20.4445 11.7783H20.4455C20.771 11.5903 21.2646 11.4668 21.8147 11.4668Z" stroke="white" stroke-width="2"/>
</g>
<defs>
<clipPath id="clip0_515_161">
<rect width="24" height="24" fill="white" transform="translate(9.81528 10.0918)"/>
</clipPath>
</defs>
</svg>
