<svg width="44" height="44" viewBox="0 0 44 44" fill="none" xmlns="http://www.w3.org/2000/svg">
<rect x="0.459717" y="0.603027" width="42.7111" height="42.7111" rx="21.3556" fill="#EB8145"/>
<path d="M28.9653 28.9586H23.2053V26.8286C25.3153 25.2086 26.4053 23.1986 26.4053 20.7986C26.4053 19.2986 25.9753 18.1186 25.1353 17.2486C24.2853 16.3786 23.1853 15.9586 21.8453 15.9586C20.4953 15.9586 19.3853 16.3786 18.5253 17.2586C17.6553 18.1286 17.2253 19.3286 17.2253 20.8386C17.2253 23.2186 18.3153 25.2186 20.4253 26.8286V28.9586H14.6653V26.8286H18.2253C15.8553 25.2786 14.6653 23.1886 14.6653 20.5586C14.6653 18.4586 15.3153 16.8186 16.6253 15.6186C17.9353 14.4086 19.6553 13.8086 21.7853 13.8086C23.9653 13.8086 25.7053 14.4086 27.0053 15.5986C28.3153 16.7886 28.9653 18.4586 28.9653 20.5386C28.9653 23.1686 27.7653 25.2686 25.3653 26.8286H28.9653V28.9586Z" fill="white"/>
</svg>
