<svg width="44" height="44" viewBox="0 0 44 44" fill="none" xmlns="http://www.w3.org/2000/svg">
<rect x="0.459717" y="0.89209" width="42.7111" height="42.7111" rx="21.3556" fill="#EB8145"/>
<g clip-path="url(#clip0_515_141)">
<path d="M21.8153 11.2476C24.7327 11.2476 27.5307 12.4063 29.5936 14.4692C31.6565 16.5321 32.8153 19.3302 32.8153 22.2476C32.8153 25.1649 31.6565 27.963 29.5936 30.0259C27.5307 32.0888 24.7327 33.2476 21.8153 33.2476C18.8979 33.2476 16.0999 32.0888 14.037 30.0259C11.9741 27.963 10.8153 25.1649 10.8153 22.2476C10.8153 19.3302 11.9741 16.5321 14.037 14.4692C16.0999 12.4063 18.8979 11.2476 21.8153 11.2476ZM16.1688 22.0122C15.5421 22.0325 14.9794 22.1993 14.5789 22.3911L14.576 22.3931C14.0814 22.6325 13.7019 23.0586 13.5213 23.5776C13.3408 24.0967 13.3737 24.6669 13.6131 25.1616C13.8526 25.6561 14.2788 26.0348 14.7977 26.2153C15.0764 26.3122 15.3697 26.3459 15.6581 26.3208C15.6566 26.6296 15.6892 26.9381 15.7577 27.2407V27.2417C15.9347 28.048 16.3859 28.7684 17.034 29.2798L17.0516 29.2935C17.71 29.7888 18.5195 30.0405 19.3426 30.0073V30.0083C19.8862 29.9902 20.4208 29.8637 20.9149 29.6362L20.9237 29.6313L20.9334 29.6274C21.1781 29.5089 21.3973 29.3433 21.578 29.1401C21.7587 28.9369 21.8979 28.6998 21.9872 28.4429C22.0764 28.1859 22.1134 27.9136 22.0975 27.6421C22.0816 27.3706 22.0129 27.1046 21.8944 26.8599C21.7758 26.6151 21.6093 26.3961 21.4061 26.2153C21.203 26.0347 20.9666 25.8954 20.7098 25.8062C20.4529 25.7169 20.1806 25.6799 19.909 25.6958C19.8901 25.6969 19.8713 25.7 19.8524 25.7017C19.8532 25.4096 19.8231 25.0929 19.7479 24.77H19.7489C19.6028 24.1379 19.2478 23.3384 18.4666 22.7349L18.4569 22.7271L18.202 22.5522C17.5958 22.1735 16.8876 21.9849 16.1688 22.0132V22.0122ZM24.6932 14.6841C24.0024 14.7321 23.3371 14.9652 22.7674 15.3589C22.4473 15.5801 22.1647 15.8484 21.9266 16.1519C21.6593 16.1055 21.386 16.0936 21.1131 16.1177C20.5249 16.1697 19.9628 16.3861 19.492 16.7427C19.0212 17.0993 18.6604 17.582 18.451 18.1343C18.4053 18.2549 18.3681 18.378 18.3377 18.5024C18.306 18.333 18.2585 18.1664 18.1922 18.0063C18.0666 17.703 17.8824 17.427 17.6502 17.1948C17.4181 16.9627 17.142 16.7785 16.8387 16.6528C16.5355 16.5273 16.2099 16.4634 15.8817 16.4634C15.5537 16.4634 15.2287 16.5273 14.9256 16.6528C14.6223 16.7785 14.3462 16.9627 14.1141 17.1948C13.882 17.427 13.6978 17.703 13.5721 18.0063C13.4465 18.3096 13.3817 18.6351 13.3817 18.9634C13.3818 19.6263 13.6454 20.2622 14.1141 20.731C14.5828 21.1997 15.2188 21.4633 15.8817 21.4634C16.5447 21.4634 17.1814 21.1998 17.6502 20.731C17.9464 20.4348 18.1596 20.0715 18.2772 19.6772C18.2859 19.7401 18.2959 19.8032 18.3084 19.8657C18.4245 20.4447 18.7014 20.9797 19.1073 21.4087C19.5132 21.8375 20.0317 22.1438 20.6034 22.2915C21.1751 22.4392 21.7768 22.4222 22.3397 22.2437C22.5998 22.1611 22.846 22.0439 23.0741 21.8989C23.2018 21.9706 23.3338 22.0338 23.4686 22.0903C22.8277 22.106 22.216 22.3654 21.7616 22.8198C21.2928 23.2886 21.0292 23.9245 21.0291 24.5874C21.0291 25.2503 21.2929 25.8862 21.7616 26.355C22.2303 26.8237 22.8663 27.0873 23.5291 27.0874C24.0312 27.0874 24.5174 26.9356 24.9276 26.6587C24.9017 26.8031 24.8866 26.9504 24.8866 27.0991C24.8866 27.7621 25.1502 28.3979 25.619 28.8667C26.0878 29.3355 26.7236 29.5991 27.3866 29.5991C28.0495 29.5991 28.6853 29.3355 29.1541 28.8667C29.623 28.3979 29.8865 27.7621 29.8866 27.0991C29.8866 26.4361 29.623 25.8004 29.1541 25.3315C28.6853 24.8627 28.0496 24.5991 27.3866 24.5991C26.8846 24.5991 26.3983 24.7501 25.9881 25.0269C26.0139 24.8827 26.0291 24.7359 26.0291 24.5874C26.0291 23.9245 25.7664 23.2886 25.2977 22.8198C25.1211 22.6432 24.9205 22.4956 24.7039 22.3804C24.7879 22.3859 24.8722 22.3892 24.9569 22.3892V22.3901L24.9579 22.3892V22.3901H24.9608V22.3892L24.9627 22.3901L24.9618 22.3892C25.6523 22.3889 26.3302 22.2046 26.9247 21.853C27.5206 21.5004 28.0109 20.9935 28.3436 20.3862C28.6763 19.7789 28.8399 19.093 28.8163 18.4009C28.7926 17.7089 28.5831 17.0358 28.2098 16.4526C27.8364 15.8694 27.3119 15.3976 26.6932 15.0864C26.0746 14.7754 25.3839 14.6361 24.6932 14.6841Z" stroke="white" stroke-width="2"/>
</g>
<defs>
<clipPath id="clip0_515_141">
<rect width="24" height="24" fill="white" transform="translate(9.81528 10.2476)"/>
</clipPath>
</defs>
</svg>
