<svg width="44" height="43" viewBox="0 0 44 43" fill="none" xmlns="http://www.w3.org/2000/svg">
<rect x="0.459717" y="0.180664" width="42.7111" height="42.7111" rx="21.3556" fill="#EB8145"/>
<path d="M30.3859 26.9765C31.6517 25.9131 32.663 24.5794 33.3451 23.0734C34.0273 21.5675 34.363 19.9278 34.3275 18.2749C34.2023 12.5552 29.6213 7.83905 23.9116 7.53874C22.4384 7.45855 20.9642 7.67523 19.5763 8.17591C18.1885 8.67659 16.9155 9.45106 15.8328 10.4533C14.7501 11.4556 13.8799 12.6652 13.2738 14.0103C12.6677 15.3555 12.3381 16.8087 12.3045 18.2837L9.49538 23.6868C9.48412 23.7093 9.47285 23.7318 9.46284 23.7544C9.26145 24.2238 9.24709 24.7524 9.42272 25.2321C9.59835 25.7118 9.95067 26.1062 10.4076 26.3345L10.4389 26.3483L13.3056 27.6609V31.5475C13.3056 32.0785 13.5165 32.5877 13.892 32.9632C14.2675 33.3386 14.7767 33.5496 15.3077 33.5496H21.3139C21.5794 33.5496 21.834 33.4441 22.0218 33.2564C22.2095 33.0686 22.315 32.814 22.315 32.5485C22.315 32.283 22.2095 32.0284 22.0218 31.8407C21.834 31.6529 21.5794 31.5475 21.3139 31.5475H15.3077V27.019C15.3078 26.8271 15.2528 26.6393 15.1492 26.4778C15.0456 26.3163 14.8978 26.1879 14.7233 26.1081L11.3035 24.5402L14.1903 18.9919C14.2655 18.8509 14.3054 18.6937 14.3066 18.5339C14.3063 16.4922 14.9995 14.511 16.2727 12.9148C17.5458 11.3187 19.3233 10.2022 21.3139 9.74854V11.6993C20.646 11.9355 20.0831 12.4001 19.7246 13.0112C19.3662 13.6222 19.2353 14.3403 19.3551 15.0385C19.4749 15.7367 19.8377 16.3701 20.3793 16.8268C20.9209 17.2834 21.6065 17.5338 22.315 17.5338C23.0234 17.5338 23.709 17.2834 24.2506 16.8268C24.7923 16.3701 25.155 15.7367 25.2748 15.0385C25.3946 14.3403 25.2637 13.6222 24.9053 13.0112C24.5468 12.4001 23.9839 11.9355 23.316 11.6993V9.52455C23.4787 9.52455 23.6413 9.52455 23.804 9.53707C25.5792 9.63875 27.285 10.2616 28.7081 11.3277C30.1312 12.3937 31.2083 13.8557 31.8048 15.5308H29.3223C29.1754 15.5307 29.0303 15.563 28.8973 15.6253C28.7644 15.6876 28.6467 15.7783 28.5527 15.8912L25.3606 19.7227C24.6949 19.4746 23.9629 19.47 23.2941 19.7096C22.6252 19.9492 22.0627 20.4176 21.7059 21.032C21.3492 21.6463 21.2212 22.3671 21.3446 23.0667C21.468 23.7664 21.8348 24.3998 22.3802 24.8551C22.9256 25.3104 23.6145 25.5581 24.3249 25.5544C25.0354 25.5508 25.7216 25.296 26.2623 24.8351C26.803 24.3743 27.1633 23.7371 27.2795 23.0362C27.3957 22.3353 27.2603 21.6159 26.8972 21.0052L29.7915 17.5329H32.2678C32.2979 17.7932 32.3162 18.0559 32.3229 18.3212C32.3541 19.755 32.0438 21.1757 31.4176 22.4659C30.7914 23.7561 29.8673 24.8788 28.7216 25.7414C28.5805 25.8473 28.4698 25.9885 28.4008 26.1509C28.3318 26.3133 28.3069 26.4911 28.3287 26.6661L29.3298 34.6745C29.3602 34.9162 29.4778 35.1386 29.6605 35.2998C29.8432 35.4611 30.0784 35.5502 30.322 35.5504C30.3639 35.5504 30.4057 35.5479 30.4472 35.5429C30.5777 35.5266 30.7037 35.4848 30.818 35.4199C30.9323 35.3549 31.0327 35.2681 31.1135 35.1643C31.1942 35.0606 31.2538 34.9419 31.2887 34.8151C31.3236 34.6883 31.3331 34.5559 31.3168 34.4255L30.3859 26.9765ZM22.315 15.5308C22.117 15.5308 21.9234 15.4721 21.7588 15.3621C21.5942 15.2521 21.4659 15.0958 21.3901 14.9128C21.3144 14.7299 21.2945 14.5287 21.3332 14.3345C21.3718 14.1403 21.4671 13.9619 21.6071 13.8219C21.7471 13.6819 21.9255 13.5866 22.1197 13.548C22.3139 13.5093 22.5151 13.5292 22.698 13.6049C22.881 13.6807 23.0373 13.809 23.1473 13.9736C23.2573 14.1382 23.316 14.3318 23.316 14.5298C23.316 14.7953 23.2105 15.0499 23.0228 15.2376C22.8351 15.4253 22.5805 15.5308 22.315 15.5308ZM24.317 23.5391C24.1191 23.5391 23.9255 23.4804 23.7609 23.3704C23.5963 23.2604 23.468 23.1041 23.3922 22.9212C23.3164 22.7383 23.2966 22.537 23.3352 22.3428C23.3739 22.1486 23.4692 21.9702 23.6092 21.8302C23.7492 21.6903 23.9276 21.5949 24.1218 21.5563C24.3159 21.5177 24.5172 21.5375 24.7001 21.6133C24.883 21.689 25.0394 21.8173 25.1494 21.9819C25.2594 22.1466 25.3181 22.3401 25.3181 22.5381C25.3181 22.8036 25.2126 23.0582 25.0249 23.2459C24.8372 23.4337 24.5825 23.5391 24.317 23.5391Z" fill="white"/>
</svg>
