<svg width="44" height="44" viewBox="0 0 44 44" fill="none" xmlns="http://www.w3.org/2000/svg">
<rect x="0.459717" y="0.469727" width="42.7111" height="42.7111" rx="21.3556" fill="#EB8145"/>
<path d="M16.8153 13.1631C13.8263 14.8921 11.8153 18.1238 11.8153 21.8252M16.8153 13.1631V16.8252M16.8153 13.1631H13.1531" stroke="white" stroke-width="2" stroke-linecap="round" stroke-linejoin="round"/>
<path d="M13.1531 26.8252C14.8821 29.8142 18.1139 31.8252 21.8153 31.8252M13.1531 26.8252H16.8153M13.1531 26.8252V30.4874" stroke="white" stroke-width="2" stroke-linecap="round" stroke-linejoin="round"/>
<path d="M26.8153 30.4874C29.8043 28.7583 31.8153 25.5266 31.8153 21.8252M26.8153 30.4874V26.8252M26.8153 30.4874H30.4775" stroke="white" stroke-width="2" stroke-linecap="round" stroke-linejoin="round"/>
<path d="M30.4774 16.8252C28.7483 13.8362 25.5166 11.8252 21.8152 11.8252M30.4774 16.8252H26.8152M30.4774 16.8252V13.163" stroke="white" stroke-width="2" stroke-linecap="round" stroke-linejoin="round"/>
</svg>
