<svg width="44" height="43" viewBox="0 0 44 43" fill="none" xmlns="http://www.w3.org/2000/svg">
<rect x="0.459717" y="0.0253906" width="42.7111" height="42.7111" rx="21.3556" fill="#EB8145"/>
<g clip-path="url(#clip0_515_156)">
<path d="M27.1483 25.0474C28.8278 25.0474 31.3686 25.4593 33.4618 26.2935C34.5078 26.7103 35.3792 27.2083 35.9735 27.7612C36.5592 28.3062 36.8153 28.8423 36.8153 29.3813V31.0474H17.4823V29.3813C17.4823 28.8425 17.7376 28.3061 18.3231 27.7612C18.9174 27.2083 19.7897 26.7103 20.8358 26.2935C22.9288 25.4594 25.4688 25.0474 27.1483 25.0474ZM9.81528 17.0474C11.1212 17.0474 12.2032 17.842 12.5995 19.0308L12.828 19.7144H19.4823V20.3813H16.8153V23.0474H16.1483V20.3813H12.828L12.5995 21.0649C12.2031 22.2536 11.1211 23.0474 9.81528 23.0474C8.1009 23.0474 6.81528 21.7617 6.81528 20.0474C6.81544 18.3331 8.101 17.0474 9.81528 17.0474ZM9.81528 17.7144C9.18811 17.7144 8.58754 17.9275 8.14145 18.3735C7.69541 18.8196 7.48234 19.4202 7.48227 20.0474C7.48227 20.6745 7.69545 21.2751 8.14145 21.7212C8.58756 22.1673 9.18803 22.3813 9.81528 22.3813C10.4425 22.3813 11.043 22.1673 11.4891 21.7212C11.9351 21.2751 12.1483 20.6745 12.1483 20.0474C12.1482 19.4202 11.9351 18.8196 11.4891 18.3735C11.043 17.9275 10.4424 17.7144 9.81528 17.7144ZM27.1483 11.7144C29.5292 11.7144 31.4821 13.6665 31.4823 16.0474C31.4823 18.4284 29.5293 20.3813 27.1483 20.3813C24.7674 20.3812 22.8153 18.4283 22.8153 16.0474C22.8155 13.6666 24.7675 11.7145 27.1483 11.7144Z" stroke="white" stroke-width="2"/>
</g>
<defs>
<clipPath id="clip0_515_156">
<rect width="32" height="32" fill="white" transform="translate(5.81528 5.38086)"/>
</clipPath>
</defs>
</svg>
