<svg width="43" height="43" viewBox="0 0 43 43" fill="none" xmlns="http://www.w3.org/2000/svg">
<rect width="42.7111" height="42.7111" rx="21.3556" fill="#EB8145"/>
<path d="M30.5714 27.8405H30.3091C30.6647 27.455 30.9027 26.9759 30.995 26.4596C31.0872 25.9432 31.0298 25.4113 30.8296 24.9265C30.6294 24.4418 30.2947 24.0244 29.865 23.7236C29.4353 23.4229 28.9285 23.2513 28.4045 23.2292V17.7588H28.8172C28.8762 17.7588 28.9346 17.7472 28.9892 17.7246C29.0437 17.7021 29.0932 17.669 29.1349 17.6273C29.1766 17.5856 29.2097 17.536 29.2323 17.4815C29.2548 17.427 29.2664 17.3686 29.2664 17.3096V15.2289C29.2664 15.1699 29.2548 15.1115 29.2323 15.057C29.2097 15.0024 29.1766 14.9529 29.1349 14.9112C29.0932 14.8695 29.0437 14.8364 28.9892 14.8138C28.9346 14.7913 28.8762 14.7797 28.8172 14.7797H23.0059V12.1872H25.544C25.6631 12.1872 25.7774 12.1399 25.8616 12.0556C25.9458 11.9714 25.9932 11.8571 25.9932 11.738V9.80466C25.9932 9.68553 25.9458 9.57128 25.8616 9.48704C25.7774 9.40279 25.6631 9.35547 25.544 9.35547H17.1175C16.9984 9.35547 16.8841 9.40279 16.7999 9.48704C16.7157 9.57128 16.6683 9.68553 16.6683 9.80466V11.7367C16.6683 11.8559 16.7157 11.9701 16.7999 12.0543C16.8841 12.1386 16.9984 12.1859 17.1175 12.1859H19.6556V14.7784H13.844C13.7249 14.7784 13.6106 14.8257 13.5264 14.91C13.4422 14.9942 13.3948 15.1085 13.3948 15.2276V17.3083C13.3948 17.4274 13.4422 17.5417 13.5264 17.6259C13.6106 17.7102 13.7249 17.7575 13.844 17.7575H14.257V23.2446C13.7534 23.3038 13.2759 23.5011 12.8773 23.8146C12.4788 24.1281 12.1746 24.5456 11.9984 25.0211C11.8222 25.4966 11.7808 26.0116 11.8788 26.5091C11.9769 27.0066 12.2105 27.4674 12.5539 27.8405H12.0865C11.3598 27.8475 10.6652 28.1411 10.1538 28.6575C9.64245 29.1738 9.35556 29.8712 9.35556 30.5979C9.35556 31.3247 9.64245 32.022 10.1538 32.5384C10.6652 33.0547 11.3598 33.3483 12.0865 33.3553H30.5714C30.9357 33.3589 31.2972 33.2901 31.6348 33.1531C31.9724 33.0161 32.2796 32.8136 32.5385 32.5572C32.7973 32.3008 33.0029 31.9956 33.1431 31.6593C33.2833 31.323 33.3556 30.9623 33.3556 30.5979C33.3556 30.2336 33.2833 29.8728 33.1431 29.5365C33.0029 29.2002 32.7973 28.8951 32.5385 28.6387C32.2796 28.3823 31.9724 28.1797 31.6348 28.0427C31.2972 27.9057 30.9357 27.837 30.5714 27.8405ZM30.1386 25.9795C30.1381 26.4729 29.9418 26.946 29.593 27.2948C29.2441 27.6437 28.7711 27.84 28.2777 27.8405H16.6142C17.0819 27.3343 17.3416 26.6704 17.3416 25.9812C17.3416 25.292 17.0819 24.6281 16.6142 24.1219H28.2777C28.7706 24.1221 29.2434 24.3177 29.5922 24.666C29.9411 25.0142 30.1376 25.4866 30.1386 25.9795ZM14.5835 28.7389H14.8469C14.7075 28.8904 14.5854 29.057 14.4829 29.2356C14.3802 29.0569 14.2577 28.8903 14.1179 28.7389H14.5835ZM14.4837 31.9585C14.5862 32.1377 14.7085 32.3049 14.8482 32.4569H14.1179C14.2577 32.3049 14.3809 32.1377 14.4837 31.9585ZM15.0189 30.596C15.0192 30.2283 15.1286 29.8689 15.3332 29.5634C15.5378 29.2578 15.8284 29.0198 16.1683 28.8794C16.5082 28.7391 16.882 28.7026 17.2426 28.7747C17.6032 28.8468 17.9343 29.0243 18.194 29.2845C18.4538 29.5448 18.6305 29.8763 18.7019 30.237C18.7732 30.5977 18.736 30.9715 18.5949 31.3111C18.4538 31.6507 18.2152 31.9408 17.9093 32.1447C17.6033 32.3487 17.2437 32.4574 16.876 32.4569C16.383 32.4564 15.9103 32.26 15.5621 31.9111C15.2138 31.5621 15.0184 31.089 15.0189 30.596ZM17.5667 10.2539H25.0948V11.2875H17.5667V10.2539ZM20.554 12.1859H22.1075V14.7784H20.554V12.1859ZM14.2932 15.6768H28.368V16.8591H14.2932V15.6768ZM27.5061 17.7575V23.2223H15.1554V17.7588L27.5061 17.7575ZM12.7254 25.9795C12.7258 25.6118 12.8351 25.2525 13.0397 24.947C13.2443 24.6414 13.5349 24.4034 13.8748 24.263C14.2146 24.1226 14.5885 24.0862 14.949 24.1583C15.3096 24.2304 15.6407 24.4077 15.9005 24.668C16.1602 24.9283 16.337 25.2597 16.4084 25.6204C16.4797 25.9811 16.4426 26.3549 16.3015 26.6945C16.1605 27.0341 15.9219 27.3242 15.616 27.5282C15.31 27.7322 14.9505 27.8409 14.5828 27.8405C14.0897 27.84 13.6171 27.6436 13.2687 27.2946C12.9204 26.9456 12.725 26.4726 12.7254 25.9795ZM10.2291 30.596C10.2295 30.2283 10.3389 29.8689 10.5435 29.5634C10.7481 29.2579 11.0386 29.0199 11.3785 28.8795C11.7184 28.7391 12.0922 28.7026 12.4528 28.7747C12.8134 28.8468 13.1445 29.0242 13.4042 29.2844C13.664 29.5447 13.8407 29.8761 13.9121 30.2369C13.9835 30.5976 13.9463 30.9713 13.8053 31.3109C13.6642 31.6505 13.4257 31.9406 13.1197 32.1446C12.8138 32.3486 12.4542 32.4573 12.0865 32.4569C11.5935 32.4564 11.1208 32.2601 10.7725 31.9111C10.4242 31.5621 10.2287 31.0891 10.2291 30.596ZM30.5714 32.4569H18.9079C19.3757 31.951 19.6356 31.2873 19.6358 30.5982C19.6361 29.9091 19.3766 29.2452 18.9092 28.7389H30.5714C30.8174 28.736 31.0615 28.782 31.2895 28.8741C31.5176 28.9662 31.7252 29.1027 31.9001 29.2756C32.0751 29.4485 32.214 29.6544 32.3088 29.8814C32.4036 30.1084 32.4524 30.3519 32.4524 30.5979C32.4524 30.8439 32.4036 31.0874 32.3088 31.3144C32.214 31.5414 32.0751 31.7473 31.9001 31.9202C31.7252 32.0932 31.5176 32.2296 31.2895 32.3218C31.0615 32.4139 30.8174 32.4598 30.5714 32.4569Z" fill="white" stroke="white"/>
</svg>
