<svg width="69" height="72" viewBox="0 0 69 72" fill="none" xmlns="http://www.w3.org/2000/svg">
<g filter="url(#filter0_d_262_1016)">
<path d="M3.53516 30.6949C3.53516 13.7426 17.2777 0 34.23 0C51.1824 0 64.9249 13.7426 64.9249 30.6949V34.1638C64.9249 51.1161 51.1824 64.8587 34.23 64.8587C17.2777 64.8587 3.53516 51.1161 3.53516 34.1638V30.6949Z" fill="white"/>
</g>
<path d="M48.6673 32.7069L45.414 29.0003L45.8673 24.0936L41.054 23.0003L38.534 18.7603L34.0007 20.7069L29.4673 18.7603L26.9473 23.0003L22.134 24.0803L22.5873 28.9869L19.334 32.7069L22.5873 36.4136L22.134 41.3336L26.9473 42.4269L29.4673 46.6669L34.0007 44.7069L38.534 46.6536L41.054 42.4136L45.8673 41.3203L45.414 36.4136L48.6673 32.7069ZM31.334 39.3736L26.0007 34.0403L27.8807 32.1603L31.334 35.6003L40.1207 26.8136L42.0007 28.7069L31.334 39.3736Z" fill="#EB8145"/>
<defs>
<filter id="filter0_d_262_1016" x="0.151904" y="0" width="68.1571" height="71.6254" filterUnits="userSpaceOnUse" color-interpolation-filters="sRGB">
<feFlood flood-opacity="0" result="BackgroundImageFix"/>
<feColorMatrix in="SourceAlpha" type="matrix" values="0 0 0 0 0 0 0 0 0 0 0 0 0 0 0 0 0 0 127 0" result="hardAlpha"/>
<feOffset dy="3.38325"/>
<feGaussianBlur stdDeviation="1.69163"/>
<feComposite in2="hardAlpha" operator="out"/>
<feColorMatrix type="matrix" values="0 0 0 0 0 0 0 0 0 0 0 0 0 0 0 0 0 0 0.25 0"/>
<feBlend mode="normal" in2="BackgroundImageFix" result="effect1_dropShadow_262_1016"/>
<feBlend mode="normal" in="SourceGraphic" in2="effect1_dropShadow_262_1016" result="shape"/>
</filter>
</defs>
</svg>
