<svg width="100" height="100" viewBox="0 0 100 100" fill="none" xmlns="http://www.w3.org/2000/svg">
<path d="M88.5016 1.92523C88.2735 1.73474 87.9958 1.61324 87.701 1.575C87.4063 1.53676 87.1068 1.58336 86.8377 1.70933C86.5685 1.8353 86.3409 2.03542 86.1814 2.2862C86.022 2.53699 85.9374 2.82805 85.9375 3.12523V6.25023H39.0625C32.0201 6.25809 25.2684 9.05915 20.2887 14.0389C15.3089 19.0186 12.5079 25.7703 12.5 32.8127H15.625C15.632 26.5989 18.1036 20.6415 22.4974 16.2477C26.8913 11.8538 32.8486 9.38226 39.0625 9.37523H87.5C87.9144 9.37523 88.3118 9.21061 88.6049 8.91758C88.8979 8.62456 89.0625 8.22713 89.0625 7.81273V6.46117L94.4328 10.9377L89.0625 15.4143V14.0627C89.0625 13.6483 88.8979 13.2509 88.6049 12.9579C88.3118 12.6649 87.9144 12.5002 87.5 12.5002H54.6875V15.6252H85.9375V18.7502C85.9374 19.0474 86.022 19.3385 86.1814 19.5893C86.3409 19.84 86.5685 20.0402 86.8377 20.1661C87.1068 20.2921 87.4063 20.3387 87.701 20.3005C87.9958 20.2622 88.2735 20.1407 88.5016 19.9502L97.8766 12.1377C98.0524 11.9911 98.1939 11.8076 98.2909 11.6002C98.388 11.3929 98.4384 11.1667 98.4384 10.9377C98.4384 10.7088 98.388 10.4826 98.2909 10.2752C98.1939 10.0679 98.0524 9.88437 97.8766 9.73773L88.5016 1.92523Z" fill="white"/>
<path d="M51.5625 12.5H48.4375V15.625H51.5625V12.5Z" fill="white"/>
<path d="M11.4983 98.075C11.7264 98.2655 12.0041 98.387 12.2988 98.4252C12.5935 98.4635 12.893 98.4169 13.1622 98.2909C13.4314 98.1649 13.659 97.9648 13.8185 97.714C13.9779 97.4632 14.0625 97.1722 14.0624 96.875V93.75H60.9374C67.9798 93.7421 74.7315 90.9411 79.7112 85.9613C84.691 80.9816 87.492 74.2299 87.4999 67.1875H84.3749C84.3678 73.4014 81.8963 79.3587 77.5024 83.7525C73.1086 88.1464 67.1512 90.618 60.9374 90.625H12.4999C12.0855 90.625 11.6881 90.7896 11.395 91.0826C11.102 91.3757 10.9374 91.7731 10.9374 92.1875V93.5391L5.56551 89.0625L10.9374 84.5859V85.9375C10.9374 86.3519 11.102 86.7493 11.395 87.0424C11.6881 87.3354 12.0855 87.5 12.4999 87.5H45.3124V84.375H14.0624V81.25C14.0625 80.9528 13.9779 80.6618 13.8185 80.411C13.659 80.1602 13.4314 79.9601 13.1622 79.8341C12.893 79.7081 12.5935 79.6615 12.2988 79.6998C12.0041 79.738 11.7264 79.8595 11.4983 80.05L2.12332 87.8625C1.94748 88.0091 1.80601 88.1926 1.70893 88.4C1.61184 88.6074 1.56152 88.8335 1.56152 89.0625C1.56152 89.2915 1.61184 89.5176 1.70893 89.725C1.80601 89.9324 1.94748 90.1159 2.12332 90.2625L11.4983 98.075Z" fill="white"/>
<path d="M51.5625 84.375H48.4375V87.5H51.5625V84.375Z" fill="white"/>
<path d="M20.8969 56.5L22.6344 61.85C22.8394 62.4797 23.2859 63.0024 23.8759 63.3033C24.4659 63.6041 25.1511 63.6586 25.7813 63.4547L27.5 62.8969C28.4285 64.5165 29.5286 66.0315 30.7813 67.4156L29.7234 68.8703C29.5302 69.136 29.3912 69.4371 29.3144 69.7565C29.2376 70.0759 29.2246 70.4074 29.2759 70.7318C29.3273 71.0563 29.4421 71.3675 29.6138 71.6475C29.7855 71.9276 30.0107 72.1711 30.2766 72.3641L34.8281 75.6719C35.3643 76.0607 36.0329 76.2208 36.6871 76.1171C37.3412 76.0134 37.9275 75.6543 38.3172 75.1188L39.3766 73.6609C41.0794 74.4285 42.8607 75.0084 44.6891 75.3906V77.1875C44.6891 77.8503 44.9522 78.4859 45.4207 78.9547C45.8892 79.4235 46.5247 79.6871 47.1875 79.6875H52.8125C53.4755 79.6875 54.1114 79.4241 54.5803 78.9553C55.0491 78.4864 55.3125 77.8505 55.3125 77.1875V75.3906C57.1408 75.0084 58.9221 74.4285 60.625 73.6609L61.6828 75.1172C61.8758 75.3828 62.1192 75.6078 62.3991 75.7794C62.6791 75.951 62.9901 76.0657 63.3143 76.1171C63.6386 76.1684 63.9699 76.1554 64.2891 76.0788C64.6084 76.0021 64.9094 75.8633 65.175 75.6703L69.7234 72.3656C69.9895 72.1729 70.215 71.9296 70.387 71.6496C70.559 71.3697 70.6741 71.0585 70.7258 70.7341C70.7775 70.4096 70.7646 70.0781 70.6881 69.7586C70.6116 69.439 70.4728 69.1377 70.2797 68.8719L69.2203 67.4156C70.4732 66.0316 71.5732 64.5166 72.5016 62.8969L74.2203 63.4547C74.8508 63.659 75.5367 63.6046 76.1271 63.3034C76.7175 63.0022 77.1641 62.4788 77.3688 61.8484L79.1063 56.5C79.2079 56.1876 79.247 55.8582 79.2212 55.5307C79.1955 55.2032 79.1055 54.884 78.9563 54.5913C78.8071 54.2986 78.6017 54.0382 78.3518 53.825C78.102 53.6117 77.8125 53.4498 77.5 53.3484L75.7813 52.7922C75.9833 50.9362 75.9833 49.0638 75.7813 47.2078L77.5 46.6516C77.8122 46.5499 78.1014 46.3878 78.3509 46.1744C78.6004 45.961 78.8055 45.7005 78.9544 45.4078C79.1032 45.1152 79.193 44.7961 79.2185 44.4687C79.244 44.1414 79.2048 43.8122 79.1031 43.5L77.3656 38.15C77.1603 37.5205 76.7137 36.9982 76.1237 36.6977C75.5337 36.3972 74.8487 36.3429 74.2188 36.5469L72.5 37.1031C71.5715 35.4835 70.4715 33.9685 69.2188 32.5844L70.2766 31.1297C70.4698 30.864 70.6088 30.5629 70.6856 30.2435C70.7624 29.9241 70.7755 29.5926 70.7241 29.2682C70.6727 28.9437 70.5579 28.6325 70.3862 28.3525C70.2145 28.0724 69.9893 27.8289 69.7234 27.6359L65.1734 24.3281C64.6372 23.9393 63.9687 23.7792 63.3145 23.8829C62.6603 23.9866 62.0741 24.3457 61.6844 24.8812L60.625 26.3391C58.9221 25.5715 57.1408 24.9916 55.3125 24.6094V22.8125C55.3125 22.1495 55.0491 21.5136 54.5803 21.0447C54.1114 20.5759 53.4755 20.3125 52.8125 20.3125H47.1875C46.5245 20.3125 45.8886 20.5759 45.4197 21.0447C44.9509 21.5136 44.6875 22.1495 44.6875 22.8125V24.6094C42.8592 24.9916 41.0779 25.5715 39.375 26.3391L38.3172 24.8828C38.1242 24.6172 37.8808 24.3922 37.6009 24.2206C37.3209 24.049 37.0099 23.9343 36.6857 23.8829C36.3614 23.8316 36.0302 23.8446 35.7109 23.9212C35.3916 23.9979 35.0906 24.1367 34.825 24.3297L30.2766 27.6344C30.0105 27.8271 29.785 28.0704 29.613 28.3504C29.441 28.6303 29.3259 28.9415 29.2742 29.2659C29.2226 29.5904 29.2354 29.9219 29.3119 30.2414C29.3885 30.561 29.5272 30.8623 29.7203 31.1281L30.7797 32.5844C29.5269 33.9684 28.4268 35.4834 27.4984 37.1031L25.7797 36.5469C25.4674 36.4452 25.1381 36.4061 24.8107 36.4317C24.4833 36.4573 24.1641 36.5472 23.8714 36.6962C23.5788 36.8453 23.3183 37.0505 23.105 37.3002C22.8917 37.5499 22.7296 37.8392 22.6281 38.1516L20.8969 43.5C20.7952 43.8122 20.756 44.1414 20.7815 44.4687C20.807 44.7961 20.8968 45.1152 21.0456 45.4078C21.1945 45.7005 21.3996 45.961 21.6491 46.1744C21.8987 46.3878 22.1878 46.5499 22.5 46.6516L24.2188 47.2078C24.0167 49.0638 24.0167 50.9362 24.2188 52.7922L22.5 53.3484C22.1878 53.4501 21.8987 53.6122 21.6491 53.8256C21.3996 54.039 21.1945 54.2995 21.0456 54.5922C20.8968 54.8848 20.807 55.2039 20.7815 55.5313C20.756 55.8586 20.7952 56.1878 20.8969 56.5ZM25.6719 55.6047C26.2255 55.4216 26.6982 55.0515 27.009 54.5581C27.3197 54.0646 27.4491 53.4784 27.375 52.9C27.125 50.9732 27.125 49.0221 27.375 47.0953C27.4485 46.5174 27.3186 45.9318 27.0075 45.4392C26.6965 44.9466 26.2237 44.5775 25.6703 44.3953L24.0609 43.8734L25.4141 39.7125L27.025 40.2344C27.5805 40.4145 28.1814 40.3946 28.7237 40.1779C29.266 39.9613 29.7153 39.5617 29.9938 39.0484C30.928 37.3484 32.0735 35.7734 33.4031 34.3609C33.8048 33.9382 34.046 33.3884 34.0851 32.8066C34.1242 32.2248 33.9587 31.6477 33.6172 31.175L32.6203 29.8047L36.1609 27.2328L37.1547 28.6031C37.4989 29.0753 37.9976 29.4119 38.5642 29.5546C39.1308 29.6974 39.7295 29.6371 40.2563 29.3844C42.009 28.5516 43.8618 27.9482 45.7688 27.5891C46.3426 27.4833 46.8614 27.1802 47.2352 26.7321C47.609 26.2841 47.8144 25.7194 47.8156 25.1359V23.4375H52.1906V25.1281C52.192 25.7118 52.3975 26.2767 52.7717 26.7248C53.1458 27.1728 53.6649 27.4758 54.2391 27.5813C56.1444 27.9404 57.9955 28.5432 59.7469 29.375C60.2735 29.6273 60.8718 29.6873 61.4381 29.5446C62.0043 29.4019 62.5027 29.0655 62.8469 28.5937L63.8422 27.2234L67.3828 29.7953L66.3859 31.1656C66.0445 31.6383 65.879 32.2154 65.9181 32.7972C65.9572 33.379 66.1984 33.9288 66.6 34.3516C67.9305 35.7667 69.0761 37.3449 70.0094 39.0484C70.2899 39.5597 70.7395 39.9575 71.2811 40.1736C71.8228 40.3897 72.4227 40.4106 72.9781 40.2328L74.5906 39.7109L75.9438 43.8703L74.3328 44.3938C73.7792 44.5769 73.3065 44.9469 72.9957 45.4404C72.685 45.9338 72.5556 46.52 72.6297 47.0984C72.8797 49.0253 72.8797 50.9763 72.6297 52.9031C72.5562 53.4811 72.6861 54.0666 72.9972 54.5592C73.3082 55.0519 73.781 55.4209 74.3344 55.6031L75.9438 56.125L74.5906 60.2875L72.9688 59.7656C72.4132 59.587 71.8128 59.6078 71.2709 59.8242C70.729 60.0407 70.2796 60.4394 70 60.9516C69.0663 62.6543 67.9208 64.232 66.5906 65.6469C66.189 66.0696 65.9478 66.6194 65.9087 67.2012C65.8696 67.783 66.0351 68.3602 66.3766 68.8328L67.3734 70.2031L63.8328 72.775L62.8391 71.4047C62.4949 70.9326 61.9962 70.5959 61.4296 70.4532C60.863 70.3104 60.2643 70.3707 59.7375 70.6234C57.9848 71.4562 56.132 72.0596 54.225 72.4188C53.6512 72.5245 53.1324 72.8277 52.7586 73.2757C52.3847 73.7237 52.1794 74.2884 52.1781 74.8719V76.5625H47.8125V74.8719C47.8112 74.2882 47.6056 73.7233 47.2315 73.2752C46.8573 72.8272 46.3382 72.5242 45.7641 72.4188C43.8577 72.0599 42.0055 71.457 40.2531 70.625C39.7261 70.3748 39.1284 70.316 38.5627 70.4585C37.997 70.6011 37.4986 70.9362 37.1531 71.4062L36.1578 72.7766L32.6172 70.2031L33.6141 68.8328C33.9555 68.3602 34.121 67.783 34.0819 67.2012C34.0429 66.6194 33.8016 66.0696 33.4 65.6469C32.0695 64.2317 30.9239 62.6535 29.9906 60.95C29.7108 60.4381 29.2613 60.0398 28.7194 59.8236C28.1775 59.6074 27.5772 59.5869 27.0219 59.7656L25.4109 60.2891L24.0625 56.1281L25.6719 55.6047Z" fill="white"/>
<path d="M50 70.3125C54.0174 70.3125 57.9446 69.1212 61.285 66.8892C64.6254 64.6573 67.2289 61.4849 68.7663 57.7733C70.3037 54.0616 70.706 49.9775 69.9222 46.0372C69.1384 42.097 67.2039 38.4777 64.3631 35.6369C61.5224 32.7961 57.903 30.8616 53.9628 30.0778C50.0225 29.294 45.9384 29.6963 42.2267 31.2337C38.5151 32.7711 35.3427 35.3746 33.1108 38.715C30.8788 42.0554 29.6875 45.9826 29.6875 50C29.6937 55.3853 31.8358 60.5483 35.6437 64.3563C39.4517 68.1643 44.6147 70.3063 50 70.3125ZM55.5469 66.25C51.9542 67.4979 48.0458 67.4979 44.4531 66.25V62.5C44.4531 61.8784 44.7001 61.2823 45.1396 60.8427C45.5791 60.4032 46.1753 60.1563 46.7969 60.1563H53.2031C53.8247 60.1563 54.4209 60.4032 54.8604 60.8427C55.2999 61.2823 55.5469 61.8784 55.5469 62.5V66.25ZM47.2656 52.7328C47.2659 52.1921 47.4266 51.6636 47.7272 51.2141C48.0279 50.7646 48.455 50.4144 48.9547 50.2077C49.4544 50.001 50.0041 49.9471 50.5344 50.0527C51.0647 50.1584 51.5518 50.419 51.934 50.8014C52.3163 51.1839 52.5766 51.6711 52.6819 52.2015C52.7873 52.7319 52.7331 53.2816 52.5261 53.7811C52.3191 54.2807 51.9686 54.7077 51.519 55.008C51.0693 55.3084 50.5407 55.4688 50 55.4688C49.2751 55.4679 48.58 55.1796 48.0674 54.667C47.5548 54.1543 47.2665 53.4578 47.2656 52.7328ZM50 32.8125C53.7743 32.8094 57.4444 34.0498 60.4429 36.3419C63.4414 38.634 65.6013 41.8502 66.5884 45.4931C67.5756 49.1359 67.3351 53.0026 65.9041 56.495C64.4731 59.9875 61.9313 62.9112 58.6719 64.8141V62.5C58.6675 61.1691 58.1771 59.8857 57.2929 58.891C56.4086 57.8963 55.1915 57.2588 53.8703 57.0984C54.7643 56.3119 55.3975 55.2716 55.6855 54.1162C55.9734 52.9608 55.9025 51.7451 55.4822 50.6309C55.0619 49.5168 54.3121 48.5572 53.3327 47.88C52.3533 47.2027 51.1908 46.8399 50 46.8399C48.8092 46.8399 47.6467 47.2027 46.6673 47.88C45.6879 48.5572 44.9381 49.5168 44.5178 50.6309C44.0975 51.7451 44.0266 52.9608 44.3145 54.1162C44.6025 55.2716 45.2357 56.3119 46.1297 57.0984C44.8085 57.2588 43.5914 57.8963 42.7071 58.891C41.8229 59.8857 41.3325 61.1691 41.3281 62.5V64.8141C38.0687 62.9112 35.5269 59.9875 34.0959 56.495C32.6649 53.0026 32.4244 49.1359 33.4116 45.4931C34.3987 41.8502 36.5586 38.634 39.5571 36.3419C42.5556 34.0498 46.2257 32.8094 50 32.8125Z" fill="white"/>
<path d="M46.25 41.4686L45.9046 43.4873C45.8558 43.7745 45.8882 44.0697 45.9982 44.3395C46.1082 44.6093 46.2915 44.8429 46.5273 45.0141C46.7631 45.1852 47.042 45.287 47.3326 45.3079C47.6232 45.3289 47.9139 45.2682 48.1718 45.1326L49.9812 44.1811L51.7937 45.1326C52.0518 45.2687 52.3428 45.3298 52.6339 45.3091C52.9249 45.2883 53.2043 45.1864 53.4404 45.015C53.6766 44.8436 53.86 44.6095 53.9699 44.3392C54.0798 44.069 54.1119 43.7733 54.0624 43.4857L53.7156 41.4686L55.1812 40.0404C55.3901 39.837 55.5379 39.5791 55.6079 39.296C55.6779 39.0129 55.6672 38.7159 55.5771 38.4385C55.4871 38.1611 55.3212 37.9145 55.0982 37.7265C54.8753 37.5386 54.6042 37.4167 54.3156 37.3748L52.2843 37.0811L51.3781 35.2451C51.2343 35.0015 51.0295 34.7996 50.7838 34.6593C50.5382 34.5191 50.2602 34.4453 49.9773 34.4453C49.6944 34.4453 49.4164 34.5191 49.1708 34.6593C48.9251 34.7996 48.7203 35.0015 48.5765 35.2451L47.6718 37.0795L45.6406 37.3733C45.3538 37.4162 45.0846 37.5382 44.8631 37.7254C44.6417 37.9127 44.4767 38.1579 44.3867 38.4336C44.2967 38.7093 44.2852 39.0046 44.3535 39.2864C44.4218 39.5683 44.5672 39.8256 44.7734 40.0295L46.25 41.4686ZM49.9828 39.4201C50.1778 39.6937 50.4563 39.8966 50.7765 39.9983C50.577 40.2699 50.4707 40.5987 50.4734 40.9357C50.3147 40.883 50.1485 40.8561 49.9812 40.8561C49.8144 40.8559 49.6487 40.8829 49.4906 40.9357C49.4906 40.5977 49.3809 40.2687 49.1781 39.9983C49.5042 39.8992 49.789 39.6961 49.989 39.4201H49.9828Z" fill="white"/>
</svg>
