<svg width="68" height="68" viewBox="0 0 68 68" fill="none" xmlns="http://www.w3.org/2000/svg">
<g filter="url(#filter0_d_1188_175)">
<circle cx="33.9072" cy="31.9423" r="31.9423" fill="white"/>
</g>
<path d="M34.2792 13.3593C24.2435 13.3593 16.0663 21.3534 16.0663 31.3154C16.0663 34.6359 17.0575 37.8335 18.668 40.5393L15.3229 50.1322L25.4824 46.9346C28.0844 48.2876 31.0577 49.1484 34.2792 49.1484C44.3149 49.1484 52.4921 41.1543 52.4921 31.1923C52.4921 21.2304 44.3149 13.2363 34.2792 13.3593ZM34.4031 46.3197C31.4152 46.3374 28.4871 45.4825 25.9781 43.86L20.0309 45.7044L21.8895 40.047C19.9594 37.4984 18.9152 34.3889 18.9158 31.192C18.9158 22.8288 25.8542 16.0646 34.2791 16.0646C42.7039 16.0646 49.6423 22.8288 49.7663 31.192C49.7664 39.5554 42.8281 46.3197 34.4031 46.3197Z" fill="#EB8145"/>
<path fill-rule="evenodd" clip-rule="evenodd" d="M27.5718 23.2324L28.7661 23.3014C28.8817 23.3086 28.9929 23.3481 29.0872 23.4154C29.1815 23.4826 29.255 23.5749 29.2995 23.6819L31.0387 27.7401C31.083 27.8468 31.0967 27.9637 31.0783 28.0777C31.0598 28.1918 31.01 28.2985 30.9344 28.3858L29.4154 30.1266C29.356 30.1956 29.3187 30.2809 29.3084 30.3714C29.2982 30.4619 29.3154 30.5533 29.3578 30.6339C31.3639 34.4616 35.0048 35.9835 36.0948 36.364C36.1847 36.396 36.2825 36.3988 36.3741 36.3719C36.4657 36.345 36.5465 36.2899 36.6049 36.2144L38.193 34.1623C38.2798 34.0515 38.4013 33.9732 38.538 33.9398C38.6747 33.9064 38.8186 33.9199 38.9467 33.9781L42.9935 35.8228C43.1207 35.8824 43.2241 35.983 43.2872 36.1085C43.3502 36.2339 43.3694 36.3769 43.3414 36.5145L43.1556 37.4016C43.0502 37.8997 42.8474 38.372 42.5589 38.7915C42.2703 39.211 41.9017 39.5692 41.4742 39.8458C40.3727 40.5375 38.958 40.8834 37.1491 40.3762C31.5486 38.7966 28.3831 35.1073 26.6785 32.8014C24.974 30.4956 24.3132 28.1898 24.7422 26.3109C25.0321 25.0542 25.9596 24.0742 26.5394 23.5784C26.8269 23.3361 27.196 23.2126 27.5714 23.2332L27.5718 23.2324Z" fill="#EB8145"/>
<defs>
<filter id="filter0_d_1188_175" x="7.15256e-07" y="0" width="67.8144" height="67.8144" filterUnits="userSpaceOnUse" color-interpolation-filters="sRGB">
<feFlood flood-opacity="0" result="BackgroundImageFix"/>
<feColorMatrix in="SourceAlpha" type="matrix" values="0 0 0 0 0 0 0 0 0 0 0 0 0 0 0 0 0 0 127 0" result="hardAlpha"/>
<feOffset dy="1.96489"/>
<feGaussianBlur stdDeviation="0.982444"/>
<feComposite in2="hardAlpha" operator="out"/>
<feColorMatrix type="matrix" values="0 0 0 0 0 0 0 0 0 0 0 0 0 0 0 0 0 0 0.25 0"/>
<feBlend mode="normal" in2="BackgroundImageFix" result="effect1_dropShadow_1188_175"/>
<feBlend mode="normal" in="SourceGraphic" in2="effect1_dropShadow_1188_175" result="shape"/>
</filter>
</defs>
</svg>
